<svg width="81" height="46" fill="none" xmlns="http://www.w3.org/2000/svg"><g clip-path="url(#a)" fill="#fff"><path d="M41.456 7.552v-.458c0-4.69 1.736-6.54 3.908-6.54a3.212 3.212 0 0 1 1.524.31v2.4a2.45 2.45 0 0 0-1.296-.438c-1.03 0-1.774.916-1.774 4.252v.496c0 3.528.744 4.252 1.812 4.252a2.627 2.627 0 0 0 1.296-.42v2.284a3.22 3.22 0 0 1-1.716.4c-2.134 0-3.754-1.886-3.754-6.538ZM48.09.65h2.316v11.134h2.46v2.212H48.09V.65Zm7.492-.038h2.478l2.546 13.384H58.27l-.438-2.65h-2.116l-.42 2.65h-2.25L55.582.612Zm1.906 8.636-.706-4.4-.724 4.4h1.43Zm3.518 4.29v-2.422c.82.476 1.468.744 2.098.744.668 0 1.24-.324 1.24-1.144v-.038c0-.6-.2-1.068-1.296-2.326-1.582-1.8-2.23-2.65-2.23-4.27v-.038c0-2.136 1.4-3.488 3.242-3.488.934 0 1.488.134 2.06.42v2.42c-.724-.42-1.164-.6-1.774-.6-.648 0-1.2.42-1.2 1.144v.038c0 .63.2.858 1.296 2.136 1.83 2.116 2.23 2.936 2.23 4.462v.038c0 2.098-1.468 3.488-3.298 3.488a5.334 5.334 0 0 1-2.368-.564Zm6.2 0v-2.422c.82.476 1.468.744 2.098.744.668 0 1.24-.324 1.24-1.144v-.038c0-.6-.2-1.068-1.296-2.326-1.582-1.8-2.23-2.65-2.23-4.27v-.038c0-2.136 1.4-3.488 3.242-3.488.934 0 1.488.134 2.06.42v2.42c-.724-.42-1.164-.6-1.774-.6-.648 0-1.2.42-1.2 1.144v.038c0 .63.2.858 1.296 2.136 1.83 2.116 2.23 2.936 2.23 4.462v.038c0 2.098-1.468 3.488-3.298 3.488a5.335 5.335 0 0 1-2.368-.564Zm-23.216 2.68h2.478L49.006 29.6H46.68l-.438-2.65h-2.118l-.42 2.65h-2.248l2.534-13.382Zm1.906 8.636-.706-4.4-.724 4.4h1.43Zm3.394-1.698v-.458c0-4.69 1.736-6.54 3.908-6.54.526-.025 1.05.08 1.526.306v2.4a2.45 2.45 0 0 0-1.296-.438c-1.03 0-1.774.916-1.774 4.252v.496c0 3.528.744 4.252 1.812 4.252a2.628 2.628 0 0 0 1.296-.42v2.288a3.22 3.22 0 0 1-1.716.4c-2.134.002-3.756-1.886-3.756-6.538Zm7.874-4.692h-1.64v-2.2h5.6v2.2h-1.64v11.134h-2.32V18.464Zm4.976-2.2h2.326V29.61H62.14V16.264Zm3.508 7v-.68c0-4.4 1.43-6.52 3.546-6.52 2.116 0 3.546 2.116 3.546 6.52v.68c0 4.4-1.43 6.52-3.546 6.52-2.116 0-3.546-2.108-3.546-6.52Zm4.728 0v-.68c0-3.433-.476-4.386-1.182-4.386s-1.188.956-1.188 4.386v.68c0 3.431.476 4.384 1.182 4.384s1.188-.947 1.188-4.384Zm3.506-7h2.174l2.35 6.74v-6.74h2.268V29.61h-2.068l-2.46-7.074v7.074h-2.264V16.264ZM41.456 38.863v-.458c0-4.69 1.736-6.54 3.908-6.54.526-.024 1.05.08 1.526.306v2.4a2.449 2.449 0 0 0-1.296-.438c-1.03 0-1.774.916-1.774 4.252v.496c0 3.528.744 4.252 1.812 4.252a2.627 2.627 0 0 0 1.296-.42v2.288a3.22 3.22 0 0 1-1.716.4c-2.136-.004-3.756-1.892-3.756-6.538Zm5.928.109v-.686c0-4.4 1.43-6.52 3.546-6.52 2.116 0 3.546 2.116 3.546 6.52v.686c0 4.4-1.43 6.52-3.546 6.52-2.116 0-3.546-2.116-3.546-6.52Zm4.728 0v-.686c0-3.432-.476-4.386-1.182-4.386s-1.182.954-1.182 4.386v.686c0 3.432.476 4.384 1.182 4.384s1.182-.952 1.182-4.384Zm3.508-7.016h2.306l1.64 4.88 1.64-4.88h2.306v13.346h-2.23v-8.064l-1.696 5.052h-.038l-1.696-5.052v8.064H55.62V31.956ZM37.976 42.704H35.24v2.736h2.736v-2.736ZM13.434 5.01l8.11-4.308h-6.378L12.048 2.36l1.386 2.65Zm2.442 4.676L32.788.702h-6.376L14.49 7.036l1.386 2.65Zm2.442 4.676L37.976 3.92V.702h-.318L16.934 11.71l1.384 2.652Zm2.444 4.676 17.214-9.144V6.506l-18.6 9.88 1.386 2.652Zm17.214-6.558L21.82 21.06l.478.917L.806 33.208v2.402l37.17-19.744V12.48Zm0 5.972L.806 38.196v3.386l37.17-19.742v-3.388Zm0 5.974L.806 44.168v1.272h3.982l33.188-17.628v-3.386Zm0 5.972L9.658 45.44h6.376l21.942-11.654v-3.389Zm0 5.974L20.902 45.44h6.378l10.696-5.682v-3.386Z"/><path d="M11.182.702H.806v32.506l21.492-11.23L11.182.702Z"/></g><defs><clipPath id="a"><path fill="#fff" transform="translate(.806 .554)" d="M0 0h79.866v44.938H0z"/></clipPath></defs></svg>