<svg width="186" height="36" fill="none" xmlns="http://www.w3.org/2000/svg"><path d="M.3 20.357h4.538c2.1 0 3.618.3 4.556.92.937.618 1.406 1.574 1.406 2.905 0 .9-.225 1.632-.694 2.232-.468.6-1.125.956-1.987 1.125v.112c1.069.206 1.856.6 2.362 1.2.507.6.75 1.406.75 2.419 0 1.369-.487 2.437-1.443 3.225-.957.769-2.288 1.162-3.994 1.162H.3v-15.3Zm2.494 6.32h2.4c1.05 0 1.8-.17 2.287-.488.488-.338.713-.9.713-1.688 0-.712-.263-1.237-.788-1.556-.525-.319-1.35-.488-2.475-.488H2.794v4.22Zm0 2.024v4.838h2.644c1.05 0 1.837-.207 2.362-.6.525-.394.806-1.032.806-1.894 0-.788-.262-1.388-.806-1.763s-1.369-.58-2.475-.58H2.794Zm19.125-3.768v6.918c0 .788-.169 1.482-.525 2.082-.356.6-.863 1.05-1.538 1.368-.675.32-1.462.47-2.362.47-1.369 0-2.438-.357-3.207-1.05-.768-.713-1.143-1.67-1.143-2.888V24.95h2.25v6.544c0 .825.168 1.425.487 1.819.338.394.881.581 1.65.581.75 0 1.275-.187 1.613-.581.337-.394.506-.994.506-1.819V24.97h2.269v-.037Zm8.925 7.724c0 .957-.338 1.726-1.05 2.288-.694.563-1.669.825-2.907.825-1.143 0-2.156-.206-3.018-.638v-2.1c.712.32 1.331.544 1.837.676.506.13.957.206 1.369.206.488 0 .881-.094 1.144-.282.262-.187.393-.468.393-.843a.992.992 0 0 0-.168-.563c-.113-.169-.281-.319-.506-.468-.226-.15-.694-.394-1.388-.732-.656-.3-1.144-.6-1.463-.881a3.689 3.689 0 0 1-.787-.994 2.883 2.883 0 0 1-.3-1.312c0-.938.319-1.688.956-2.231.638-.544 1.519-.807 2.663-.807.562 0 1.087.075 1.593.207.507.13 1.032.318 1.576.562l-.732 1.762a12.91 12.91 0 0 0-1.406-.487 4.463 4.463 0 0 0-1.106-.131c-.431 0-.75.094-.994.3a1.021 1.021 0 0 0-.338.787.95.95 0 0 0 .132.525c.093.15.243.3.45.431.206.132.675.394 1.444.75.993.47 1.687.957 2.062 1.444.356.431.544 1.013.544 1.706Zm1.931 2.963V24.933h2.269V35.62h-2.269Zm14.437 0h-2.887l-4.65-8.081H39.6c.094 1.425.131 2.437.131 3.056v5.025h-2.025V24.933h2.85l4.65 8.006h.056c-.075-1.388-.112-2.363-.112-2.944v-5.062h2.044V35.62h.018Zm8.851 0h-6.15V24.933h6.15v1.856H52.18v2.344h3.62v1.856h-3.619v2.775h3.882v1.856Zm8.55-2.963c0 .957-.338 1.726-1.05 2.288-.694.563-1.67.825-2.907.825-1.143 0-2.156-.206-3.018-.638v-2.1c.712.32 1.33.544 1.837.676.506.13.956.206 1.369.206.487 0 .881-.094 1.144-.282.262-.187.393-.468.393-.843a.992.992 0 0 0-.168-.563c-.113-.169-.282-.319-.507-.468-.225-.15-.693-.394-1.387-.732-.656-.3-1.144-.6-1.463-.881a3.689 3.689 0 0 1-.787-.994 2.883 2.883 0 0 1-.3-1.312c0-.938.319-1.688.956-2.231.638-.544 1.519-.807 2.663-.807.562 0 1.087.075 1.593.207.507.13 1.032.318 1.575.562l-.73 1.762a12.91 12.91 0 0 0-1.407-.487 4.463 4.463 0 0 0-1.106-.131c-.432 0-.75.094-.994.3a1.021 1.021 0 0 0-.338.787.95.95 0 0 0 .132.525c.093.15.243.3.45.431.206.132.675.394 1.443.75.994.47 1.688.957 2.063 1.444.356.431.544 1.013.544 1.706Zm8.231 0c0 .957-.338 1.726-1.05 2.288-.694.563-1.669.825-2.906.825-1.144 0-2.157-.206-3.02-.638v-2.1c.713.32 1.332.544 1.838.676.507.13.956.206 1.369.206.487 0 .881-.094 1.144-.282.262-.187.394-.468.394-.843a.992.992 0 0 0-.17-.563c-.112-.169-.28-.319-.505-.468-.225-.15-.694-.394-1.388-.732-.656-.3-1.144-.6-1.462-.881a3.689 3.689 0 0 1-.788-.994 2.883 2.883 0 0 1-.3-1.312c0-.938.319-1.688.956-2.231.638-.544 1.519-.807 2.663-.807.562 0 1.087.075 1.594.207.506.13 1.03.318 1.575.562l-.732 1.762a12.91 12.91 0 0 0-1.406-.487 4.463 4.463 0 0 0-1.106-.131c-.431 0-.75.094-.994.3a1.021 1.021 0 0 0-.337.787.95.95 0 0 0 .13.525c.094.15.245.3.45.431.207.132.676.394 1.444.75.994.47 1.688.957 2.063 1.444.356.431.544 1.013.544 1.706Zm13.012 2.963h-2.493V22.495h-4.5v-2.138h11.475v2.138h-4.5V35.62h.018Zm7.463-4.088v4.107H91.05V24.95h3.112c1.444 0 2.532.263 3.225.788.694.525 1.05 1.33 1.05 2.4 0 .637-.168 1.18-.525 1.687-.337.488-.843.881-1.462 1.144 1.612 2.4 2.662 3.956 3.15 4.65h-2.512l-2.55-4.106h-1.22v.018Zm0-1.856h.731c.713 0 1.237-.112 1.594-.356.337-.244.506-.619.506-1.125s-.169-.863-.525-1.088c-.356-.206-.881-.318-1.612-.318h-.694v2.887Zm7.612 5.944V24.933h2.269V35.62h-2.269Zm11.494 0-.769-2.55h-3.9l-.768 2.55h-2.438l3.769-10.725h2.775l3.787 10.725h-2.456Zm-1.312-4.444c-.713-2.306-1.125-3.6-1.219-3.918a8.56 8.56 0 0 1-.188-.713c-.168.619-.618 2.175-1.387 4.631h2.794Zm5.1 4.444V24.933h2.268v8.812h4.332v1.875h-6.6Zm19.968-8.269h5.625v7.67c-.918.3-1.8.505-2.643.637a17.96 17.96 0 0 1-2.738.187c-2.306 0-4.087-.675-5.344-2.044-1.256-1.368-1.875-3.3-1.875-5.793 0-2.457.713-4.388 2.119-5.775 1.406-1.388 3.356-2.082 5.831-2.082 1.594 0 3.113.3 4.538.92l-.881 2.08c-1.238-.562-2.475-.862-3.713-.862-1.631 0-2.925.506-3.862 1.537-.957 1.032-1.425 2.42-1.425 4.2 0 1.875.431 3.282 1.275 4.257.843.975 2.081 1.462 3.675 1.462.806 0 1.668-.094 2.587-.3v-3.937h-3.169V27.35Zm10.875 4.181v4.107h-2.269V24.95h3.113c1.444 0 2.531.263 3.225.788s1.05 1.33 1.05 2.4a2.82 2.82 0 0 1-.525 1.687c-.338.488-.844.881-1.463 1.144 1.613 2.4 2.663 3.956 3.15 4.65h-2.512l-2.55-4.106h-1.219v.018Zm0-1.856h.731c.713 0 1.238-.112 1.594-.356.338-.244.506-.619.506-1.125s-.168-.863-.525-1.088c-.356-.206-.881-.318-1.612-.318h-.694v2.887Zm17.325.6c0 1.763-.431 3.131-1.312 4.088-.882.956-2.138 1.425-3.769 1.425-1.631 0-2.888-.469-3.769-1.425-.881-.956-1.312-2.306-1.312-4.088 0-1.781.431-3.131 1.312-4.069.881-.937 2.138-1.406 3.788-1.406s2.906.469 3.769 1.425c.843.9 1.293 2.269 1.293 4.05Zm-7.8 0c0 1.2.225 2.1.675 2.7.45.6 1.125.9 2.025.9 1.8 0 2.719-1.2 2.719-3.6 0-2.4-.9-3.619-2.7-3.619-.9 0-1.575.3-2.044.9-.45.62-.675 1.52-.675 2.72Zm18.713-5.343v6.918c0 .788-.169 1.482-.525 2.082-.356.6-.863 1.05-1.538 1.368-.675.32-1.462.47-2.362.47-1.369 0-2.438-.357-3.206-1.05-.769-.713-1.144-1.67-1.144-2.888V24.95h2.25v6.544c0 .825.169 1.425.487 1.819.338.394.882.581 1.65.581.75 0 1.275-.187 1.613-.581.337-.394.506-.994.506-1.819V24.97h2.269v-.037Zm9.994 3.337c0 1.144-.357 2.025-1.069 2.644-.713.618-1.744.918-3.075.918h-.975v3.807H177.9V24.95h3.413c1.293 0 2.287.281 2.962.844.675.544 1.013 1.369 1.013 2.475Zm-5.119 1.706h.75c.694 0 1.219-.131 1.556-.412.338-.282.525-.675.525-1.2 0-.525-.15-.92-.431-1.182-.281-.243-.75-.375-1.369-.375h-1.031v3.17ZM42.806 4.983 41.25.389h-2.175V12.97h2.1V5.358l1.613 4.762h.037l1.594-4.762v7.612h2.1V.39h-2.175l-1.538 4.593ZM52.031.202c-1.987 0-3.337 1.987-3.337 6.15v.656c0 4.144 1.35 6.15 3.337 6.15 1.988 0 3.338-1.988 3.338-6.15v-.656c0-4.163-1.35-6.15-3.338-6.15Zm1.107 6.787c0 3.244-.45 4.125-1.107 4.125-.656 0-1.106-.9-1.106-4.125v-.656c0-3.244.45-4.144 1.106-4.144.657 0 1.107.9 1.107 4.144v.656Zm10.537-2.437v-.17c0-2.812-1.631-3.993-3.881-3.993h-2.27V12.97h2.195V8.583h.412l1.425 4.387H63.9l-1.688-5.1c.807-.637 1.463-1.687 1.463-3.318Zm-2.194.018c0 1.482-.694 2.025-1.65 2.025h-.112V2.433h.056c.956 0 1.706.412 1.706 1.987v.15Zm7.275 3.225h1.088v3.225c-.113.02-.131.02-.206.02-.9 0-1.876-.75-1.876-4.05v-.62c0-2.718.788-3.975 2.044-3.975.582 0 1.069.225 1.594.544V.652c-.45-.225-1.013-.357-1.669-.357-2.475 0-4.2 2.1-4.2 6.17v.43c0 4.388 1.819 6.17 4.013 6.17.844 0 1.5-.207 2.287-.545V5.827h-3.075v1.968ZM75.881.352l-2.4 12.618H75.6l.394-2.494h1.987l.413 2.494h2.212L78.225.352H75.88Zm.45 8.137.675-4.144.656 4.144h-1.33Zm12.975-6.375c0-.619.15-1.219.394-1.725h-3.094v6.356L84.394.39H82.35v12.58h2.138V6.295l2.325 6.675h1.874c-.3-.618-.468-1.35-.468-2.156v-.131c0-1.95.919-3.413 2.456-4.744-.881-1.444-1.35-2.55-1.35-3.656v-.169h-.019Zm11.25 2.869L99.019.389H95.55c.225.488.356 1.069.356 1.706v.17c0 1.818-.844 3.13-2.269 4.33l1.444 2.738c.113-.506.225-1.181.338-2.138l2.156.394c-.206 1.8-.581 3.113-1.031 4.144l.75 1.275h1.669v-7.65l1.593 4.762h.038l1.593-4.762v7.612h2.1V.39h-2.175l-1.556 4.593Zm9.225-4.781c-1.987 0-3.337 1.987-3.337 6.15v.656c0 4.144 1.35 6.15 3.337 6.15 1.988 0 3.338-1.988 3.338-6.15v-.656c0-4.163-1.35-6.15-3.338-6.15Zm1.106 6.787c0 3.244-.45 4.125-1.106 4.125-.656 0-1.106-.9-1.106-4.144v-.656c0-3.244.45-4.144 1.106-4.144.656 0 1.106.9 1.106 4.144v.675Zm10.538-2.437v-.17c0-2.812-1.631-3.993-3.881-3.993h-2.269V12.97h2.194V8.583h.412l1.425 4.387h2.344l-1.688-5.1c.825-.637 1.463-1.687 1.463-3.318Zm-2.194.018c0 1.482-.694 2.025-1.65 2.025h-.112V2.433h.056c.956 0 1.706.412 1.706 1.987v.15Zm7.294 3.225h1.087v3.225c-.112.02-.131.02-.206.02-.9 0-1.875-.75-1.875-4.05v-.62c0-2.718.788-3.975 2.044-3.975.581 0 1.069.225 1.594.544V.652c-.45-.225-1.013-.357-1.669-.357-2.475 0-4.2 2.1-4.2 6.17v.43c0 4.388 1.819 6.17 4.012 6.17.844 0 1.5-.207 2.288-.545V5.827h-3.075v1.968Zm7.106-7.443L131.25 12.97h2.119l.393-2.494h1.988l.412 2.494h2.194L135.975.352h-2.344Zm.45 8.137.675-4.144.656 4.144h-1.331ZM144.375.39v6.355L142.162.39H140.1v12.58h2.156V6.295l2.306 6.675h1.95V.39h-2.137ZM93.487 2.32v-.187c0-.787-.375-1.294-.9-1.294-.543 0-.9.507-.9 1.2v.225c0 .62.282 1.35.807 2.4.73-.675.993-1.5.993-2.343ZM90.9 10.458v.188c0 1.237.6 2.062 1.519 2.062.618 0 1.05-.281 1.443-.787l-2.025-3.994c-.6.75-.937 1.725-.937 2.531Z" fill="#fff"/></svg>