<svg width="177" height="44" fill="none" xmlns="http://www.w3.org/2000/svg"><g clip-path="url(#a)"><path d="M173.78 27.083c0 1.611-1.157 2.93-2.569 2.93H5.782c-1.413 0-2.57-1.319-2.57-2.93V6.347c0-1.612 1.157-2.93 2.57-2.93h165.429c1.412 0 2.569 1.318 2.569 2.93v20.736Z" fill="#fff"/><path d="M171.211 30.214H5.782c-1.528 0-2.771-1.404-2.771-3.131V6.347c0-1.726 1.243-3.131 2.771-3.131h165.429c1.528 0 2.771 1.405 2.771 3.131v20.736c0 1.727-1.243 3.131-2.771 3.131ZM5.782 3.62c-1.305 0-2.368 1.224-2.368 2.728v20.736c0 1.504 1.063 2.728 2.368 2.728h165.429c1.306 0 2.368-1.224 2.368-2.728V6.347c0-1.504-1.062-2.728-2.368-2.728H5.782Z" fill="#fff"/><path d="M167.965 8.528a1.137 1.137 0 0 0-.427-.425 1.151 1.151 0 0 0-.58-.155c-.209 0-.403.052-.583.156a1.133 1.133 0 0 0-.426.427c-.103.18-.155.374-.155.58 0 .204.05.396.151.574.101.179.241.321.422.428.18.107.377.16.591.16a1.154 1.154 0 0 0 1.163-1.162 1.15 1.15 0 0 0-.156-.583Zm-.19 1.054a.924.924 0 0 1-.345.346.927.927 0 0 1-.473.127.93.93 0 0 1-.47-.126.933.933 0 0 1-.473-.818.93.93 0 0 1 .126-.47.925.925 0 0 1 .345-.347.927.927 0 0 1 .473-.127.93.93 0 0 1 .47.126.933.933 0 0 1 .473.818.929.929 0 0 1-.126.47Z" fill="#fff"/><path d="M167.359 8.881c0-.125-.037-.218-.111-.279-.074-.061-.19-.092-.348-.092h-.346v1.2h.3v-.442h.062l.163.443h.333l-.24-.524c.124-.055.187-.157.187-.306Zm-.34.165c-.027.026-.071.04-.133.04h-.043v-.34h.041c.064 0 .109.013.136.038.026.025.039.068.039.13 0 .06-.013.105-.04.132Z" fill="#fff"/><path d="M23.172 7.882h-3.076a.077.077 0 0 0-.073.053l-2.031 6.045-2.022-6.018-.009-.027a.077.077 0 0 0-.073-.052h-3.063a.077.077 0 0 0-.077.077v17.436c0 .042.034.077.077.077h2.988a.077.077 0 0 0 .077-.077V15.58l1.989 5.921c.01.032.04.053.073.053h.106a.077.077 0 0 0 .073-.053l1.988-5.92v9.813c0 .043.035.077.077.077h3a.077.077 0 0 0 .077-.077V7.96c-.024-.042-.058-.077-.1-.077Zm6.68-.248c-3.005 0-4.729 3.134-4.729 8.597v.893c0 5.463 1.724 8.597 4.73 8.597 3.005 0 4.728-3.134 4.728-8.597v-.893c0-5.463-1.723-8.597-4.729-8.597Zm-1.42 9.49v-.893c0-3.81.451-5.586 1.42-5.586.97 0 1.421 1.775 1.421 5.586v.893c0 3.81-.451 5.586-1.42 5.586-.97 0-1.421-1.775-1.421-5.586Zm17.036 8.316a.077.077 0 0 0 .01-.07l-2.322-7.014c1.317-1.037 2.013-2.628 2.013-4.605v-.223c0-1.89-.522-3.34-1.552-4.31-.942-.886-2.26-1.336-3.92-1.336h-3.173a.077.077 0 0 0-.077.077v17.436c0 .042.034.077.077.077h3.118a.077.077 0 0 0 .077-.077v-5.972h.368l1.933 5.97.009.026c.01.032.04.054.073.054h3.294c.034 0 .057-.012.072-.033Zm-5.753-14.497c1.498.015 2.196.854 2.196 2.635v.199c0 1.756-.749 2.685-2.165 2.685h-.032v-5.52Zm27.068 14.502a.078.078 0 0 0 .016-.064L63.492 7.927l-.006-.032a.077.077 0 0 0-.075-.062H60.12a.077.077 0 0 0-.075.063L56.733 25.38a.077.077 0 0 0 .076.091h3.013c.038 0 .07-.027.076-.065l.535-3.381h2.554l.56 3.382a.077.077 0 0 0 .076.064h3.097c.025 0 .047-.01.062-.027Zm-5.068-11.262.782 4.882h-1.588l.806-4.882ZM77.08 7.882h-3.005a.077.077 0 0 0-.077.077v8.126l-2.832-8.151a.077.077 0 0 0-.073-.052h-2.897a.077.077 0 0 0-.077.077v17.436c0 .043.035.077.077.077h3.032a.077.077 0 0 0 .077-.077v-8.547l2.981 8.573c.011.03.04.051.073.051h2.723a.077.077 0 0 0 .078-.077V7.96a.08.08 0 0 0-.08-.077ZM91.696 25.8l2.25-1.38a.077.077 0 0 0 .027-.105l-1.428-2.437c.549-1.251.899-2.664 1.101-4.442l.004-.037a.077.077 0 0 0-.063-.085l-2.407-.435a.077.077 0 0 0-.059.013.076.076 0 0 0-.03.052l-.06.412a38.369 38.369 0 0 1-.251 1.632l-1.368-2.604c1.677-1.451 2.425-2.9 2.425-4.69v-.173c0-2.324-1.452-3.886-3.612-3.886-1.056 0-2.013.41-2.693 1.154-.657.719-1.02 1.697-1.02 2.757v.173c0 1.316.57 2.522 1.429 3.92-1.81 1.59-2.619 3.176-2.619 5.13v.15c0 2.738 1.841 4.803 4.282 4.803 1.35 0 2.284-.401 3.2-1.38l.785 1.43a.078.078 0 0 0 .067.04.087.087 0 0 0 .04-.012Zm-3.522-15.502c.509 0 .85.511.85 1.272v.198c0 .923-.309 1.716-.919 2.358-.554-1.083-.781-1.785-.781-2.408v-.248c0-.7.341-1.172.85-1.172Zm-1.718 10.446v-.198c0-.81.335-1.752.88-2.485l2.063 4.082c-.415.489-.868.717-1.423.717-.923 0-1.52-.83-1.52-2.116Zm23.802-12.862h-3.089a.076.076 0 0 0-.073.053l-2.031 6.045-2.022-6.018-.009-.027a.076.076 0 0 0-.073-.052h-3.077a.077.077 0 0 0-.077.077v17.436c0 .042.035.077.077.077h2.989a.077.077 0 0 0 .077-.077V15.58l1.979 5.894.009.028c.011.031.04.052.073.052h.106a.076.076 0 0 0 .073-.052l1.989-5.921v9.814c0 .042.034.077.077.077h3a.077.077 0 0 0 .077-.077V7.959a.074.074 0 0 0-.075-.077Zm6.68-.248c-3.005 0-4.729 3.134-4.729 8.597v.893c0 5.463 1.724 8.597 4.729 8.597s4.729-3.134 4.729-8.597v-.893c0-5.463-1.724-8.597-4.729-8.597Zm-1.421 9.49v-.893c0-3.81.452-5.586 1.421-5.586.969 0 1.42 1.775 1.42 5.586v.893c0 3.81-.451 5.586-1.42 5.586-.969 0-1.421-1.775-1.421-5.586Zm17.036 8.316a.078.078 0 0 0 .011-.07l-2.322-7.014c1.317-1.037 2.013-2.628 2.013-4.605v-.223c0-1.89-.523-3.34-1.553-4.31-.941-.886-2.261-1.336-3.92-1.336h-3.178a.077.077 0 0 0-.077.077v17.436c0 .042.035.077.077.077h3.118a.077.077 0 0 0 .077-.077v-5.972h.369l1.933 5.969.009.027c.01.032.039.053.073.053h3.292c.04 0 .064-.011.078-.032ZM126.8 10.943c1.498.015 2.197.854 2.197 2.635v.199c0 1.756-.749 2.685-2.165 2.685h-.032v-5.52Zm27.068 14.502a.077.077 0 0 0 .016-.064l-3.306-17.454-.007-.032a.076.076 0 0 0-.075-.062h-3.292a.077.077 0 0 0-.076.063l-3.312 17.485a.073.073 0 0 0 .016.064.077.077 0 0 0 .059.027h3.014c.038 0 .07-.027.076-.065l.535-3.381h2.554l.559 3.382a.078.078 0 0 0 .076.064h3.098c.029 0 .051-.01.065-.027ZM148.8 14.183l.782 4.882h-1.586l.804-4.882Zm15.366-6.301h-3.026a.077.077 0 0 0-.077.077v8.126l-2.823-8.124-.009-.027a.077.077 0 0 0-.073-.052h-2.899a.077.077 0 0 0-.077.077v17.436c0 .043.034.077.077.077h3.031a.077.077 0 0 0 .077-.077v-8.547l2.972 8.547.009.026c.011.031.04.052.073.052h2.723a.077.077 0 0 0 .077-.077V7.959c.022-.042-.013-.077-.055-.077Zm-21.56 7.508h-4.313a.077.077 0 0 0-.077.077v2.75c0 .042.035.076.077.076h1.436v4.372c-.089.014-.118.014-.2.014-1.665 0-2.546-1.936-2.546-5.598v-.857c0-1.836.258-3.242.766-4.178.475-.874 1.159-1.318 2.032-1.318.798 0 1.459.298 2.205.745a.077.077 0 0 0 .117-.066V8.204a.077.077 0 0 0-.044-.07c-.708-.339-1.508-.511-2.379-.511-1.783 0-3.276.768-4.318 2.22-1.086 1.514-1.66 3.764-1.66 6.507v.605c0 2.917.563 5.164 1.673 6.678.983 1.34 2.376 2.05 4.028 2.05 1.222 0 2.143-.293 3.234-.764a.077.077 0 0 0 .046-.07v-9.382a.077.077 0 0 0-.077-.077Zm-87.089 0h-4.313a.077.077 0 0 0-.077.077v2.75c0 .042.035.076.077.076h1.436v4.372c-.09.014-.118.014-.2.014-1.665 0-2.546-1.936-2.546-5.598v-.857c0-1.836.258-3.242.767-4.178.475-.874 1.158-1.318 2.031-1.318.799 0 1.46.298 2.205.745a.077.077 0 0 0 .117-.066V8.204a.077.077 0 0 0-.044-.07c-.708-.339-1.508-.511-2.378-.511-1.784 0-3.277.768-4.319 2.22-1.086 1.514-1.66 3.764-1.66 6.507v.605c0 2.917.563 5.164 1.673 6.678.983 1.34 2.376 2.05 4.028 2.05 1.222 0 2.143-.293 3.234-.764a.077.077 0 0 0 .046-.07v-9.382a.078.078 0 0 0-.077-.077Z" fill="#000"/><path d="m48.044 40.502 2.858-6.144a.186.186 0 0 1 .155-.1h.092c.064 0 .127.045.155.1l2.858 6.144c.055.119-.019.238-.155.238h-1.014c-.164 0-.237-.055-.32-.229l-.328-.721h-2.483l-.329.73a.34.34 0 0 1-.328.22H48.2c-.139 0-.212-.12-.157-.238Zm3.752-1.954-.694-1.506h-.009l-.685 1.506h1.388Zm3.798-4.025c0-.092.073-.173.173-.173h2.127c1.078 0 1.964.739 1.964 1.697 0 .704-.63 1.215-1.06 1.443.484.2 1.224.648 1.224 1.488 0 1.022-.904 1.762-1.99 1.762h-2.265a.173.173 0 0 1-.173-.173v-6.044Zm2.136 2.42c.347 0 .64-.293.64-.658 0-.365-.293-.62-.64-.62h-.711v1.278h.711Zm.12 2.492a.662.662 0 0 0 .657-.667c0-.365-.393-.639-.749-.639h-.74v1.306h.831Zm6.828-5.178a3.28 3.28 0 0 1 3.287 3.296 3.266 3.266 0 0 1-3.287 3.278 3.258 3.258 0 0 1-3.277-3.278 3.273 3.273 0 0 1 3.277-3.296Zm0 5.113a1.83 1.83 0 0 0 1.826-1.817 1.84 1.84 0 0 0-1.826-1.834c-.995 0-1.817.83-1.817 1.834 0 .995.822 1.817 1.817 1.817Zm7.898-5.104c.767 0 1.607.32 2.227.858.083.064.092.174.019.246l-.722.767a.193.193 0 0 1-.246.01c-.347-.32-.749-.439-1.196-.439-.996 0-1.799.84-1.799 1.844a1.82 1.82 0 0 0 1.808 1.817c.265 0 .539-.037.813-.146v-.53h-.576c-.1 0-.173-.072-.173-.164v-.904c0-.1.073-.173.173-.173h1.835c.091 0 .164.082.164.173l.01 2.456a.225.225 0 0 1-.073.146s-.94.594-2.264.594a3.256 3.256 0 0 1-3.278-3.269 3.27 3.27 0 0 1 3.278-3.286Zm3.451 6.236 2.858-6.144a.186.186 0 0 1 .155-.1h.091c.064 0 .128.045.156.1l2.857 6.144c.055.119-.018.238-.155.238h-1.013c-.165 0-.238-.055-.32-.229l-.328-.721h-2.483l-.329.73a.34.34 0 0 1-.329.22h-1.004c-.138 0-.211-.12-.156-.238Zm3.752-1.954-.694-1.506h-.01l-.684 1.506h1.388Zm3.798-4.025c0-.092.073-.173.164-.173h2.228c1.762 0 3.205 1.433 3.205 3.186a3.209 3.209 0 0 1-3.205 3.205H83.74c-.091 0-.164-.083-.164-.174v-6.044Zm2.3 4.866c1.032 0 1.78-.813 1.78-1.854 0-1.031-.748-1.844-1.78-1.844h-.876v3.698h.876Zm7.907-5.132a3.28 3.28 0 0 1 3.286 3.296 3.266 3.266 0 0 1-3.286 3.278 3.258 3.258 0 0 1-3.278-3.278 3.273 3.273 0 0 1 3.278-3.296Zm0 5.113a1.83 1.83 0 0 0 1.826-1.817 1.84 1.84 0 0 0-1.826-1.834c-.996 0-1.817.83-1.817 1.834 0 .995.822 1.817 1.817 1.817Zm4.711.502.429-.758c.073-.118.246-.1.31-.054.037.018.694.502 1.297.502.365 0 .63-.228.63-.548 0-.383-.32-.675-.941-.922-.785-.31-1.77-.922-1.77-2.018 0-.904.703-1.817 2.109-1.817.949 0 1.68.484 1.954.685.109.064.091.228.054.292l-.465.703c-.064.1-.229.183-.311.119-.082-.046-.748-.548-1.305-.548-.329 0-.576.22-.576.466 0 .337.274.593.996.885.712.283 1.844.84 1.844 2.082 0 .94-.813 1.89-2.155 1.89-1.187 0-1.844-.493-2.054-.703-.092-.091-.12-.128-.046-.256Zm6.299-.082a.521.521 0 1 1 0 1.04.52.52 0 1 1 0-1.04Zm5.24-5.533c.923 0 1.589.32 2.21.85.073.073.082.182.009.255l-.246.246c-.073.092-.146.083-.238-.009-.475-.41-1.123-.685-1.744-.685-1.442 0-2.547 1.215-2.547 2.63 0 1.406 1.105 2.62 2.547 2.62.795 0 1.26-.32 1.744-.685.092-.073.165-.064.219-.027l.274.246c.073.055.055.182-.009.246a3.135 3.135 0 0 1-2.219.886 3.272 3.272 0 0 1-3.295-3.278 3.287 3.287 0 0 1 3.295-3.295Zm7.095 0a3.281 3.281 0 0 1 3.287 3.296 3.266 3.266 0 0 1-3.287 3.278 3.257 3.257 0 0 1-3.278-3.278 3.273 3.273 0 0 1 3.278-3.296Zm0 5.935a2.653 2.653 0 0 0 2.647-2.639c0-1.451-1.196-2.656-2.647-2.656-1.452 0-2.639 1.205-2.639 2.656a2.646 2.646 0 0 0 2.639 2.639Zm6.089-5.806a.177.177 0 0 1 .165-.128h.146c.064 0 .137.045.155.1l1.808 5.03h.045l1.781-5.03c.018-.054.091-.1.155-.1h.146c.073 0 .146.054.164.128l1.178 6.135c.028.127-.027.219-.164.219h-.366c-.073 0-.146-.064-.164-.128l-.813-4.702h-.036l-1.68 4.82c-.019.055-.101.101-.156.101h-.164c-.055 0-.137-.045-.155-.1l-1.699-4.82h-.036l-.795 4.701c-.009.064-.091.128-.164.128h-.365c-.137 0-.192-.092-.165-.22l1.179-6.134Z" fill="#fff"/></g><defs><clipPath id="a"><path fill="#fff" transform="translate(.188 .185)" d="M0 0h176.618v43.677H0z"/></clipPath></defs></svg>