<svg width="111" height="57" fill="none" xmlns="http://www.w3.org/2000/svg"><path d="M110.187 0 .287 7.799V49.18l109.9-7.35V0ZM34.234 55.046v-3.022h.752l.795 2.063.778-2.063h.744v3.022h-.563v-2.282l-.9 2.282h-.182l-.917-2.282v2.282h-.507Zm5.147-.41c.284 0 .51-.098.676-.296.17-.2.254-.464.254-.794v-.034c0-.318-.085-.578-.254-.778-.166-.203-.395-.304-.685-.304-.293 0-.524.099-.693.296-.166.197-.25.46-.25.79v.034c0 .327.09.59.267.79a.88.88 0 0 0 .685.296Zm-.009.453c-.456 0-.825-.145-1.107-.436-.282-.29-.423-.656-.423-1.099v-.034c0-.442.144-.808.431-1.099.288-.292.654-.44 1.1-.44.447 0 .812.145 1.094.432.285.285.427.65.427 1.095v.034c0 .448-.141.818-.423 1.111-.279.29-.645.436-1.099.436Zm2.065-.043v-3.022h1.014c.347 0 .622.073.825.22.202.147.304.37.304.668v.017c0 .425-.224.696-.672.811l.85 1.306h-.61l-.79-1.221H42v1.221h-.562Zm.562-1.623h.452c.384 0 .575-.16.575-.482v-.017c0-.166-.05-.284-.148-.355-.096-.073-.238-.11-.427-.11H42v.964Zm3.523 1.666c-.473 0-.844-.141-1.111-.423-.265-.285-.398-.655-.398-1.112v-.034c0-.45.141-.82.423-1.107.282-.29.644-.435 1.086-.435.35 0 .644.084.884.253.242.17.381.424.418.765h-.562c-.065-.383-.309-.575-.731-.575-.293 0-.523.1-.69.3-.163.2-.245.468-.245.804v.034c0 .335.08.601.237.798.158.195.39.292.698.292.267 0 .467-.07.6-.211a.807.807 0 0 0 .215-.55h-.76v-.422H46.9v.279c0 .417-.122.745-.368.984-.245.24-.581.36-1.01.36Zm1.52-.043 1.01-3.022h.735l.997 3.022h-.583l-.24-.748h-1.155l-.237.748h-.528Zm1.343-2.561-.448 1.403h.892l-.444-1.403Zm1.86 2.561v-3.022h.673l1.272 2.185v-2.185h.511v3.022h-.583l-1.361-2.316v2.316h-.511Zm6.706-1.563-.495.946.508.617h-.647l-.254-.308a1.113 1.113 0 0 1-.828.346c-.296 0-.535-.077-.719-.232a.79.79 0 0 1-.274-.63.8.8 0 0 1 .173-.524c.118-.144.287-.268.507-.372-.158-.209-.237-.407-.237-.596 0-.228.08-.407.241-.537a.912.912 0 0 1 .592-.194.82.82 0 0 1 .541.182c.147.118.22.276.22.473 0 .332-.21.589-.63.77l.533.65.308-.591h.461Zm-1.657 1.179a.644.644 0 0 0 .507-.25l-.642-.782a.858.858 0 0 0-.288.22.484.484 0 0 0-.097.317c0 .152.045.273.135.364a.54.54 0 0 0 .385.13Zm-.11-1.928c0 .113.076.261.228.444a.877.877 0 0 0 .309-.215.44.44 0 0 0 .093-.288.292.292 0 0 0-.085-.215.278.278 0 0 0-.21-.085.326.326 0 0 0-.242.093c-.062.062-.093.15-.093.266Zm3.251 2.312v-3.022h.752l.795 2.063.778-2.063h.744v3.022h-.562v-2.282l-.9 2.282h-.183l-.917-2.282v2.282h-.507Zm5.147-.41c.285 0 .51-.098.676-.296.17-.2.254-.464.254-.794v-.034c0-.318-.085-.578-.254-.778-.166-.203-.394-.304-.685-.304-.293 0-.524.099-.693.296-.166.197-.25.46-.25.79v.034c0 .327.09.59.267.79a.88.88 0 0 0 .685.296Zm-.009.453c-.456 0-.825-.145-1.107-.436-.282-.29-.423-.656-.423-1.099v-.034c0-.442.144-.808.431-1.099.288-.292.654-.44 1.1-.44.447 0 .812.145 1.094.432.285.285.427.65.427 1.095v.034c0 .448-.14.818-.423 1.111-.279.29-.645.436-1.099.436Zm2.065-.043v-3.022h1.014c.347 0 .622.073.825.22.203.147.304.37.304.668v.017c0 .425-.224.696-.672.811l.85 1.306h-.61l-.79-1.221H66.2v1.221h-.562Zm.562-1.623h.453c.383 0 .574-.16.574-.482v-.017c0-.166-.049-.284-.148-.355-.095-.073-.238-.11-.426-.11H66.2v.964Zm3.523 1.666c-.473 0-.844-.141-1.111-.423-.265-.285-.398-.655-.398-1.112v-.034c0-.45.141-.82.423-1.107.282-.29.644-.435 1.086-.435.35 0 .644.084.884.253.242.17.382.424.418.765h-.562c-.065-.383-.309-.575-.731-.575-.293 0-.523.1-.69.3-.163.2-.244.468-.244.804v.034c0 .335.078.601.236.798.158.195.39.292.698.292.267 0 .468-.07.6-.211a.806.806 0 0 0 .216-.55h-.761v-.422H71.1v.279c0 .417-.122.745-.367.984-.246.24-.582.36-1.01.36Zm1.52-.043 1.01-3.022h.735l.997 3.022h-.583l-.24-.748h-1.155l-.236.748h-.529Zm1.343-2.561-.448 1.403h.892l-.444-1.403Zm1.86 2.561v-3.022h.673l1.272 2.185v-2.185h.511v3.022h-.583l-1.36-2.316v2.316h-.512Z" fill="#fff"/><path d="m35.477 38.613 1.684-5.037h1.226l1.663 5.037h-.973l-.401-1.247h-1.924l-.394 1.247h-.88Zm2.24-4.27-.746 2.34h1.486l-.74-2.34Zm3.613 4.27v-4.297h-1.402v-.74h3.748v.74h-1.402v4.297h-.944Zm4.142 0v-4.297H44.07v-.74h3.748v.74h-1.402v4.297h-.944Zm5.197-.684c.474 0 .85-.164 1.127-.493.282-.333.423-.775.423-1.324v-.056c0-.531-.141-.963-.423-1.297-.277-.338-.657-.507-1.141-.507-.489 0-.874.164-1.156.493-.277.329-.415.768-.415 1.318v.056c0 .545.148.984.444 1.317.296.33.676.493 1.141.493Zm-.014.754c-.761 0-1.376-.242-1.846-.725-.47-.484-.704-1.095-.704-1.832v-.056c0-.738.24-1.348.718-1.832.48-.488 1.09-.733 1.832-.733.747 0 1.355.24 1.825.719.474.474.711 1.083.711 1.825v.056c0 .747-.235 1.364-.705 1.853-.464.483-1.075.725-1.831.725Zm3.44-.07v-5.037h1.692c.577 0 1.035.122 1.373.366.339.244.508.615.508 1.113v.028c0 .71-.374 1.16-1.12 1.353l1.415 2.177H56.95l-1.317-2.036h-.6v2.036h-.936Zm.938-2.705h.754c.638 0 .958-.268.958-.803v-.029c0-.277-.082-.474-.247-.591-.16-.123-.397-.184-.711-.184h-.754v1.607Zm3.68 2.705v-5.037h1.12l2.12 3.642v-3.642h.852v5.037h-.972l-2.268-3.86v3.86h-.853Zm5.248 0v-5.037h3.15v.74h-2.213v1.38h1.776v.705h-1.776v1.472h2.332v.74h-3.269Zm5.326 0v-2.184l-1.67-2.853h1.036l1.134 2.085 1.106-2.085h.916l-1.578 2.86v2.177h-.944Zm4.717.07c-.657 0-1.15-.145-1.479-.437-.324-.29-.505-.69-.543-1.197h.902c.038.296.136.526.296.69.16.16.434.24.824.24.282 0 .51-.07.684-.212a.694.694 0 0 0 .267-.563c0-.235-.072-.406-.218-.514-.146-.108-.423-.195-.831-.261-.625-.085-1.078-.235-1.36-.45-.277-.222-.416-.562-.416-1.022 0-.418.163-.764.487-1.036.324-.272.746-.409 1.268-.409.544 0 .974.125 1.289.374.314.244.495.606.542 1.085h-.86c-.046-.263-.147-.453-.302-.571-.155-.122-.378-.183-.67-.183-.276 0-.49.06-.64.183a.575.575 0 0 0-.226.48c0 .215.068.377.204.485.141.108.42.193.839.254.624.084 1.08.237 1.366.458.287.216.43.566.43 1.05 0 .445-.171.816-.514 1.112-.343.296-.79.444-1.339.444ZM50.172 15.217v-4.298H48.77v-.74h3.748v.74h-1.402v4.298h-.944Zm3.1 0V10.18h.937v2.141h2.261V10.18h.944v5.037h-.944v-2.142h-2.26v2.142h-.937Zm5.29 0V10.18h3.15v.74h-2.213v1.38h1.776v.705h-1.776v1.472h2.332v.74h-3.269ZM8.616 28.434h2.255l1.25-5.118 1.24 5.118h2.413l1.882-8.06h-2.142l-1.093 5.073-1.172-5.073h-2.052l-1.082 5.027-1.037-5.027H6.745l1.871 8.06Zm9.977 0h2.322v-3.179h2.648v3.179h2.311v-8.06h-2.31v3.078h-2.65v-3.078h-2.321v8.06Zm8.884 0h2.333v-8.06h-2.333v8.06Zm6.87.135c2.074 0 3.246-1.206 3.246-2.683 0-1.747-1.048-2.277-3.088-2.502-1.003-.135-1.251-.338-1.251-.79 0-.405.316-.687.936-.687.63 0 .958.293 1.037.868h2.141c-.147-1.702-1.24-2.513-3.178-2.513-1.928 0-3.123 1.06-3.123 2.513 0 1.623.767 2.3 3.044 2.57.969.147 1.273.282 1.273.778 0 .473-.372.8-1.037.8-.958 0-1.217-.473-1.273-1.048h-2.198c.067 1.747 1.217 2.694 3.471 2.694Zm5.67-.135h2.321v-6.279h2.085v-1.78h-6.492v1.78h2.085v6.279Zm5.423 0h5.365V26.64H47.76v-6.267h-2.32v8.06Zm6.483 0h5.748v-1.781h-3.449v-1.466h2.604v-1.645h-2.604v-1.387h3.27v-1.78h-5.57v8.059Z" fill="#000"/><path d="m55.237 29.423 1.75-9.926h2.45v9.926h-4.2Z" fill="#fff"/><path d="m56.592 28.434 1.273-8.06h3.258c.886 0 1.536.177 1.95.53.42.353.63.834.63 1.443 0 .51-.142.932-.427 1.262-.278.323-.658.545-1.139.665.428.098.767.286 1.015.564.248.278.372.654.372 1.127 0 .744-.282 1.341-.846 1.792-.556.451-1.303.677-2.243.677h-3.843Zm2.49-1.545h1.015c.376 0 .669-.097.88-.293.21-.195.315-.45.315-.766 0-.564-.36-.845-1.082-.845h-.823l-.304 1.904Zm.52-3.313h.9c.73 0 1.094-.312 1.094-.936 0-.256-.075-.44-.225-.552-.143-.12-.372-.18-.688-.18h-.811l-.27 1.668Zm4.64 4.858 1.273-8.06h2.322l-.992 6.267h3.044l-.282 1.793h-5.365Zm14.9-4.61c0 1.405-.432 2.547-1.296 3.426-.865.88-1.988 1.319-3.37 1.319-1.113 0-2.04-.316-2.785-.947-.744-.631-1.116-1.492-1.116-2.581 0-1.398.429-2.544 1.285-3.438.865-.894 1.973-1.341 3.326-1.341 1.157 0 2.103.315 2.84.947.744.623 1.116 1.495 1.116 2.614Zm-2.401.078c0-.54-.135-.98-.406-1.318-.27-.338-.676-.511-1.217-.519-.669-.007-1.195.27-1.578.834-.376.564-.564 1.248-.564 2.052 0 .548.143.988.429 1.319.285.323.695.484 1.228.484.662 0 1.176-.278 1.544-.834.376-.556.564-1.229.564-2.018Zm3.8 4.532-.677-8.06h2.344l.226 5.118 1.939-5.118h1.95l.45 5.163 1.894-5.163h2.13l-3.212 8.06h-2.266l-.462-4.915-1.984 4.915H80.54Zm9.854 0 1.274-8.06h5.557l-.282 1.781h-3.257l-.215 1.387h2.593l-.248 1.623h-2.604l-.237 1.488h3.45l-.282 1.78h-5.749Zm6.924 0 1.274-8.06h3.065c.97 0 1.706.203 2.21.61.503.397.751.957.744 1.679 0 .653-.169 1.187-.508 1.6-.338.413-.789.695-1.352.845l1.521 3.326h-2.344l-1.319-2.886h-.541l-.45 2.886h-2.3Zm2.998-4.385h.812c.819 0 1.228-.368 1.228-1.105.008-.278-.075-.484-.248-.62-.165-.142-.417-.214-.755-.214h-.733l-.304 1.939Z" fill="#000"/></svg>