<svg height="43" viewBox="0 0 200 43" width="200" xmlns="http://www.w3.org/2000/svg"><path d="m199.710938 27.953125c0 1.886719-1.351563 3.433594-3.003907 3.433594h-193.464843c-1.652344 0-3.007813-1.546875-3.007813-3.433594v-24.285156c0-1.886719 1.355469-3.433594 3.007813-3.433594h193.464843c1.652344 0 3.003907 1.546875 3.003907 3.433594zm0 0" fill="#100f0d"/><g fill="#f7ed0a"><path d="m199.476562 27.953125c0 1.761719-1.242187 3.195313-2.769531 3.195313h-193.464843c-1.527344 0-2.769532-1.433594-2.769532-3.195313v-24.285156c0-1.761719 1.242188-3.195313 2.769532-3.195313h193.464843c1.527344 0 2.769531 1.433594 2.769531 3.195313zm-2.769531-27.953125h-193.464843c-1.789063 0-3.242188 1.644531-3.242188 3.667969v24.285156c0 2.023437 1.453125 3.667969 3.242188 3.667969h193.464843c1.785157 0 3.242188-1.644532 3.242188-3.667969v-24.285156c0-2.023438-1.457031-3.667969-3.242188-3.667969"/><path d="m192.6875 7.457031c-.097656.171875-.230469.304688-.402344.40625-.167968.097657-.355468.148438-.554687.148438-.195313 0-.378907-.050781-.546875-.148438-.171875-.097656-.308594-.234375-.40625-.402343-.101563-.171876-.148438-.355469-.148438-.554688s.046875-.378906.148438-.550781c.097656-.171875.230468-.308594.402344-.40625.171874-.097657.355468-.148438.550781-.148438.199219 0 .382812.046875.550781.144531.171875.101563.308594.234376.40625.40625.101562.171876.148438.355469.148438.554688 0 .195312-.046876.378906-.148438.550781zm.222656-1.234375c-.121094-.210937-.289062-.378906-.5-.5-.210937-.121094-.4375-.179687-.679687-.179687-.242188 0-.46875.0625-.679688.183593-.210937.121094-.378906.289063-.496093.5-.125.210938-.183594.4375-.183594.679688 0 .238281.058594.460938.175781.671875.117187.207031.285156.375.496094.5.210937.125.441406.1875.6875.1875.253906 0 .484375-.0625.695312-.1875.210938-.125.375-.292969.492188-.503906.117187-.207031.175781-.429688.175781-.667969 0-.246094-.0625-.472656-.183594-.683594"/><path d="m191.804688 6.828125c-.03125.03125-.085938.046875-.15625.046875h-.050782v-.398438h.046875c.074219 0 .128907.015626.160157.046876.03125.027343.046874.078124.046874.152343 0 .070313-.015624.121094-.046874.152344zm.179687.164063c.144531-.0625.21875-.183594.21875-.355469 0-.148438-.046875-.253907-.128906-.328125-.089844-.070313-.222657-.109375-.40625-.109375h-.40625v1.410156h.351562v-.519531h.070313l.191406.519531h.390625zm0 0"/><path d="m99.367188 23.007812c-1.082032 0-1.78125-.972656-1.78125-2.480468v-.230469c0-.949219.394531-2.050781 1.03125-2.910156l2.414062 4.78125c-.488281.570312-1.015625.839843-1.664062.839843zm-.765626-13.339843c0-.820313.398438-1.375.996094-1.375.59375 0 .992188.601562.992188 1.492187v.230469c0 1.082031-.359375 2.011719-1.074219 2.761719-.648437-1.265625-.914063-2.089844-.914063-2.820313zm7.777344 15.042969-1.671875-2.855469c.640625-1.464844 1.050781-3.121094 1.289063-5.203125l.003906-.042969c.007812-.046875-.027344-.089844-.070312-.097656l-2.816407-.507813c-.023437-.007812-.050781 0-.070312.015625-.019531.011719-.03125.035157-.035157.058594l-.070312.484375c-.113281.800781-.199219 1.414062-.292969 1.910156l-1.601562-3.050781c1.960937-1.699219 2.835937-3.394531 2.835937-5.492187v-.203126c0-2.722656-1.695312-4.550781-4.226562-4.550781-1.234375 0-2.351563.480469-3.144532 1.351563-.769531.839844-1.191406 1.988281-1.191406 3.230468v.199219c0 1.542969.664063 2.957031 1.667969 4.589844-2.117187 1.867187-3.0625 3.722656-3.0625 6.011719v.175781c0 3.207031 2.152344 5.625 5.007813 5.625 1.578124 0 2.671874-.46875 3.742187-1.617187l.917969 1.675781c.011718.023437.03125.039062.054687.042969.007813.003906.015625.003906.023438.003906.015625 0 .035156-.003906.046875-.011719l2.632812-1.621094c.042969-.023437.054688-.078125.03125-.121093"/><path d="m19.988281 5.464844c-.039062 0-.070312.027344-.082031.0625l-2.375 7.082031-2.367188-7.050781-.007812-.03125c-.015625-.035156-.046875-.0625-.085938-.0625h-3.589843c-.050781 0-.089844.042968-.089844.089844v20.421874c0 .050782.039063.089844.089844.089844h3.484375c.050781 0 .089844-.039062.089844-.089844v-11.492187l2.328124 6.933594c.011719.035156.046876.0625.085938.0625h.121094c.039062 0 .074218-.027344.085937-.0625l2.328125-6.933594v11.492187c0 .050782.039063.089844.089844.089844h3.484375c.050781 0 .089844-.039062.089844-.089844v-20.421874c0-.046876-.039063-.089844-.089844-.089844zm0 0"/><path d="m33.050781 16.289062c0 4.464844-.527343 6.542969-1.660156 6.542969s-1.660156-2.078125-1.660156-6.542969v-1.042968c0-4.464844.527343-6.542969 1.660156-6.542969s1.660156 2.078125 1.660156 6.542969zm-1.660156-11.113281c-3.515625 0-5.53125 3.667969-5.53125 10.070313v1.042968c0 6.398438 2.015625 10.070313 5.53125 10.070313s5.53125-3.671875 5.53125-10.070313v-1.042968c0-6.402344-2.015625-10.070313-5.53125-10.070313"/><path d="m45.492188 12.371094c0 2.054687-.875 3.144531-2.53125 3.144531h-.035157v-6.464844c1.75.015625 2.566407 1 2.566407 3.085938zm4.171874 13.578125-2.714843-8.214844c1.539062-1.214844 2.355469-3.078125 2.355469-5.394531v-.261719c0-2.214844-.613282-3.910156-1.816407-5.046875-1.101562-1.039062-2.644531-1.566406-4.585937-1.566406h-3.699219c-.050781 0-.089844.042968-.089844.089844v20.421874c0 .050782.039063.089844.089844.089844h3.628906c.050781 0 .09375-.039062.09375-.089844v-6.996093h.429688l2.257812 6.992187.011719.03125c.011719.039063.046875.0625.085938.0625h3.867187c.03125 0 .058594-.011718.074219-.035156.019531-.023438.023437-.054688.011718-.082031"/><path d="m67.714844 18.5625.9375-5.71875.914062 5.71875zm3.019531-13.042969-.007813-.039062c-.007812-.042969-.046874-.074219-.089843-.074219h-3.847657c-.042968 0-.082031.03125-.089843.074219l-3.871094 20.480469c-.007813.027343 0 .054687.019531.074218.015625.019532.042969.03125.070313.03125h3.515625c.042968 0 .082031-.03125.089844-.074218l.625-3.960938h2.984374l.65625 3.960938c.007813.042968.042969.074218.089844.074218h3.632813c.023437 0 .050781-.011718.066406-.03125.019531-.019531.027344-.046875.019531-.074218zm0 0"/><path d="m83.078125 5.464844c-.046875 0-.089844.042968-.089844.089844v9.519531l-3.3125-9.546875c-.011719-.039063-.046875-.0625-.085937-.0625h-3.382813c-.050781 0-.089843.042968-.089843.089844v20.421874c0 .050782.039062.089844.089843.089844h3.542969c.050781 0 .089844-.039062.089844-.089844v-10.011718l3.488281 10.042968c.011719.035157.046875.058594.082031.058594h3.210938c.050781 0 .089844-.039062.089844-.089844v-20.421874c0-.046876-.039063-.089844-.089844-.089844zm0 0"/><path d="m61.40625 14.257812h-5.042969c-.050781 0-.09375.042969-.09375.09375v3.21875c0 .046876.042969.089844.09375.089844h1.675781v5.121094c-.101562.015625-.136718.015625-.234374.015625-1.945313 0-2.976563-2.269531-2.976563-6.558594v-1.003906c0-2.148437.304687-3.796875.898437-4.890625.554688-1.027344 1.355469-1.546875 2.375-1.546875.933594 0 1.707032.351563 2.578126.875.027343.015625.0625.015625.089843 0 .03125-.015625.046875-.046875.046875-.078125v-3.75c0-.035156-.019531-.066406-.050781-.082031-.828125-.398438-1.765625-.601563-2.78125-.601563-2.085937 0-3.832031.902344-5.050781 2.601563-1.269532 1.773437-1.941406 4.410156-1.941406 7.621093v.710938c0 3.414062.65625 6.046875 1.957031 7.820312 1.148437 1.570313 2.777343 2.398438 4.710937 2.398438 1.429688 0 2.503906-.339844 3.78125-.890625.03125-.015625.054688-.046875.054688-.085937v-10.984376c0-.050781-.042969-.09375-.089844-.09375"/><path d="m121.835938 5.464844c-.039063 0-.074219.027344-.085938.0625l-2.375 7.082031-2.363281-7.050781-.011719-.03125c-.011719-.035156-.046875-.0625-.085938-.0625h-3.589843c-.046875 0-.089844.042968-.089844.089844v20.421874c0 .050782.042969.089844.089844.089844h3.488281c.046875 0 .089844-.039062.089844-.089844v-11.492187l2.324218 6.933594c.011719.035156.046876.0625.085938.0625h.125c.039062 0 .074219-.027344.085938-.0625l2.324218-6.933594v11.492187c0 .050782.039063.089844.089844.089844h3.484375c.050781 0 .089844-.039062.089844-.089844v-20.421874c0-.046876-.039063-.089844-.089844-.089844zm0 0"/><path d="m134.898438 16.289062c0 4.464844-.527344 6.542969-1.664063 6.542969-1.132813 0-1.660156-2.078125-1.660156-6.542969v-1.042968c0-4.464844.527343-6.542969 1.660156-6.542969 1.136719 0 1.664063 2.078125 1.664063 6.542969zm-1.664063-11.113281c-3.511719 0-5.527344 3.667969-5.527344 10.070313v1.042968c0 6.398438 2.015625 10.070313 5.527344 10.070313 3.515625 0 5.53125-3.671875 5.53125-10.070313v-1.042968c0-6.402344-2.015625-10.070313-5.53125-10.070313"/><path d="m147.339844 12.371094c0 2.054687-.878906 3.144531-2.53125 3.144531h-.039063v-6.464844c1.753907.015625 2.570313 1 2.570313 3.085938zm4.171875 13.578125-2.71875-8.214844c1.542969-1.214844 2.355469-3.078125 2.355469-5.394531v-.261719c0-2.214844-.609376-3.910156-1.8125-5.046875-1.105469-1.039062-2.648438-1.566406-4.585938-1.566406h-3.699219c-.050781 0-.09375.042968-.09375.089844v20.421874c0 .050782.042969.089844.09375.089844h3.628907c.050781 0 .089843-.039062.089843-.089844v-6.996093h.429688l2.261719 6.992187.007812.03125c.015625.039063.050781.0625.089844.0625h3.867187c.027344 0 .054688-.011718.074219-.035156.015625-.023438.019531-.054688.011719-.082031"/><path d="m169.558594 18.5625.9375-5.71875.917968 5.71875zm3.019531-13.042969-.007813-.039062c-.007812-.042969-.046874-.074219-.089843-.074219h-3.84375c-.046875 0-.082031.03125-.089844.074219l-3.875 20.480469c-.003906.027343 0 .054687.019531.074218.015625.019532.042969.03125.070313.03125h3.515625c.042968 0 .082031-.03125.089844-.074218l.625-3.960938h2.984374l.65625 3.960938c.007813.042968.046876.074218.089844.074218h3.632813c.027343 0 .050781-.011718.070312-.03125.015625-.019531.023438-.046875.019531-.074218zm0 0"/><path d="m184.925781 5.464844c-.050781 0-.09375.042968-.09375.089844v9.519531l-3.308593-9.546875c-.015626-.039063-.046876-.0625-.085938-.0625h-3.386719c-.046875 0-.089843.042968-.089843.089844v20.421874c0 .050782.042968.089844.089843.089844h3.542969c.050781 0 .089844-.039062.089844-.089844v-10.011718l3.488281 10.042968c.011719.035157.046875.058594.085937.058594h3.210938c.046875 0 .089844-.039062.089844-.089844v-20.421874c0-.046876-.042969-.089844-.089844-.089844zm0 0"/><path d="m163.25 14.257812h-5.042969c-.050781 0-.089843.042969-.089843.09375v3.21875c0 .046876.039062.089844.089843.089844h1.679688v5.121094c-.105469.015625-.140625.015625-.234375.015625-1.949219 0-2.976563-2.269531-2.976563-6.558594v-1.003906c0-2.148437.300781-3.796875.894531-4.890625.554688-1.027344 1.355469-1.546875 2.375-1.546875.933594 0 1.707032.351563 2.578126.875.03125.015625.0625.015625.09375 0 .027343-.015625.042968-.046875.042968-.078125v-3.75c0-.035156-.019531-.066406-.050781-.082031-.828125-.398438-1.761719-.601563-2.78125-.601563-2.085937 0-3.832031.902344-5.050781 2.601563-1.269532 1.773437-1.941406 4.410156-1.941406 7.621093v.710938c0 3.414062.660156 6.046875 1.957031 7.820312 1.148437 1.570313 2.777343 2.398438 4.710937 2.398438 1.429688 0 2.507813-.339844 3.78125-.890625.035156-.015625.054688-.046875.054688-.085937v-10.984376c0-.050781-.039063-.09375-.089844-.09375"/></g><path d="m10.542969 36.738281-.824219 3.285157h1.648438zm1.476562 6.117188-.289062-1.210938h-2.386719l-.289062 1.210938h-1.941407l2.289063-7.769531h2.269531l2.292969 7.769531zm0 0" fill="#fff"/><path d="m20.289062 42.855469v-4.972657l-1.582031 4.972657h-.800781l-1.558594-4.972657v4.972657h-1.851562v-7.769531h2.503906l1.3125 4.253906 1.328125-4.253906h2.476563v7.769531zm0 0" fill="#fff"/><path d="m23.347656 42.855469v-7.769531h4.675782v1.617187h-2.789063v1.398437h2.710937v1.621094h-2.710937v1.515625h2.789063v1.617188zm0 0" fill="#fff"/><path d="m31.933594 36.703125h-.988282v1.855469h.988282c.5 0 .859375-.363282.859375-.921875 0-.582031-.359375-.933594-.859375-.933594zm.730468 6.152344-1.023437-2.679688h-.695313v2.679688h-1.886718v-7.769531h3.164062c1.511719 0 2.480469 1.09375 2.480469 2.527343 0 1.316407-.675781 1.980469-1.257813 2.238281l1.3125 3.003907zm0 0" fill="#fff"/><path d="m35.722656 42.855469v-7.769531h1.886719v7.769531zm0 0" fill="#fff"/><path d="m38.515625 38.976562c0-2.375 1.316406-4.019531 3.386719-4.019531 1.671875 0 2.40625 1.085938 2.777344 2.039063l-1.546876.664062c-.195312-.605468-.617187-1.035156-1.230468-1.035156-.921875 0-1.46875.988281-1.46875 2.351562 0 1.363282.546875 2.351563 1.46875 2.351563.625 0 1.058594-.488281 1.230468-1.117187l1.558594.664062c-.359375.957031-1.105468 2.121094-2.789062 2.121094-2.070313 0-3.386719-1.65625-3.386719-4.019532" fill="#fff"/><path d="m48.160156 36.738281-.828125 3.285157h1.652344zm1.476563 6.117188-.292969-1.210938h-2.382812l-.292969 1.210938h-1.941407l2.292969-7.769531h2.265625l2.292969 7.769531zm0 0" fill="#fff"/><path d="m51.332031 37.976562c.375-.1875.839844-.6875.957031-1.109374-.046874.023437-.152343.046874-.246093.046874-.476563 0-.859375-.371093-.859375-.917968 0-.574219.453125-1.027344 1.011718-1.027344.59375 0 1.128907.476562 1.128907 1.292969 0 .921875-.5 1.734375-1.28125 2.296875zm0 0" fill="#fff"/><path d="m54.777344 40.539062c.453125.488282 1.140625.824219 1.882812.824219.558594 0 .894532-.289062.894532-.675781 0-.464844-.453126-.683594-1.101563-.929688-1.003906-.363281-2.339844-.792968-2.339844-2.433593 0-1.25.964844-2.367188 2.722657-2.367188.976562 0 1.847656.316407 2.488281.886719l-.871094 1.398438c-.476563-.445313-1.09375-.640626-1.640625-.640626-.523438 0-.78125.265626-.78125.617188 0 .417969.445312.628906 1.105469.871094 1 .363281 2.328125.851562 2.328125 2.425781 0 1.476563-1.023438 2.480469-2.78125 2.480469-1.257813 0-2.152344-.382813-2.804688-1.015625zm0 0" fill="#fff"/><path d="m62.730469 42.855469v-7.769531h1.886719v6.128906h2.5v1.640625zm0 0" fill="#f7ed0a"/><path d="m70.757812 36.738281-.828124 3.285157h1.652343zm1.476563 6.117188-.289063-1.210938h-2.386718l-.289063 1.210938h-1.945312l2.292969-7.769531h2.269531l2.289062 7.769531zm0 0" fill="#f7ed0a"/><path d="m77.585938 36.703125h-.988282v1.855469h.988282c.5 0 .859374-.363282.859374-.921875 0-.582031-.359374-.933594-.859374-.933594zm.730468 6.152344-1.023437-2.679688h-.695313v2.679688h-1.886718v-7.769531h3.164062c1.511719 0 2.476562 1.09375 2.476562 2.527343 0 1.316407-.671874 1.980469-1.253906 2.238281l1.3125 3.003907zm0 0" fill="#f7ed0a"/><path d="m84.46875 34.957031c1.433594 0 2.304688.875 2.710938 1.898438l-1.535157.699219c-.195312-.511719-.59375-.929688-1.175781-.929688-.871094 0-1.5.800781-1.5 2.351562 0 1.550782.628906 2.351563 1.5 2.351563.457031 0 .828125-.148437 1.046875-.371094v-.875h-1.277344v-1.605469h3.035157v3.226563c-.699219.792969-1.59375 1.292969-2.804688 1.292969-2.058594 0-3.417969-1.597656-3.417969-4.019532 0-2.433593 1.359375-4.019531 3.417969-4.019531" fill="#f7ed0a"/><path d="m88.332031 42.855469v-7.769531h4.675781v1.617187h-2.792968v1.398437h2.710937v1.621094h-2.710937v1.515625h2.792968v1.617188zm0 0" fill="#f7ed0a"/><path d="m94.4375 40.539062c.453125.488282 1.140625.824219 1.886719.824219.554687 0 .894531-.289062.894531-.675781 0-.464844-.453125-.683594-1.105469-.929688-1-.363281-2.339843-.792968-2.339843-2.433593 0-1.25.96875-2.367188 2.722656-2.367188.976562 0 1.851562.316407 2.492187.886719l-.875 1.398438c-.476562-.445313-1.09375-.640626-1.640625-.640626-.523437 0-.777344.265626-.777344.617188 0 .417969.441407.628906 1.105469.871094 1 .363281 2.324219.851562 2.324219 2.425781 0 1.476563-1.023438 2.480469-2.777344 2.480469-1.257812 0-2.152344-.382813-2.804687-1.015625zm0 0" fill="#f7ed0a"/><path d="m101.160156 42.855469v-6.128907h-1.664062v-1.640624h5.203125v1.640624h-1.652344v6.128907zm0 0" fill="#f7ed0a"/><path d="m107.953125 42.855469v-7.769531h1.882813v7.769531zm0 0" fill="#fff"/><path d="m115.304688 42.855469-2.363282-4.472657v4.472657h-1.871094v-7.769531h1.917969l2.234375 4.253906v-4.253906h1.863282v7.769531zm0 0" fill="#fff"/><path d="m118.410156 40.980469c.230469.199219.535156.347656.882813.347656.535156 0 .894531-.324219.894531-.90625v-5.335937h1.875v5.394531c0 1.734375-1.046875 2.515625-2.582031 2.515625-.605469 0-1.222657-.140625-1.699219-.535156zm0 0" fill="#fff"/><path d="m123.292969 35.085938h1.898437v5.019531c0 .78125.371094 1.234375 1.117188 1.234375.730468 0 1.105468-.453125 1.105468-1.234375v-5.019531h1.894532v5.007812c0 1.84375-1.152344 2.902344-3 2.902344-1.851563 0-3.015625-1.058594-3.015625-2.902344zm0 0" fill="#fff"/><path d="m133.414062 36.703125h-.988281v1.855469h.988281c.5 0 .859376-.363282.859376-.921875 0-.582031-.359376-.933594-.859376-.933594zm.734376 6.152344-1.027344-2.679688h-.695313v2.679688h-1.886719v-7.769531h3.164063c1.515625 0 2.480469 1.09375 2.480469 2.527343 0 1.316407-.675782 1.980469-1.257813 2.238281l1.316407 3.003907zm0 0" fill="#fff"/><path d="m138.695312 42.855469v-3.15625l-2.398437-4.613281h2.058594l1.28125 2.890624 1.269531-2.890624h2.058594l-2.386719 4.613281v3.15625zm0 0" fill="#fff"/><path d="m145.894531 42.855469v-7.769531h1.882813v6.128906h2.5v1.640625zm0 0" fill="#fff"/><path d="m153.917969 36.738281-.824219 3.285157h1.652344zm1.480469 6.117188-.292969-1.210938h-2.382813l-.292968 1.210938h-1.941407l2.292969-7.769531h2.265625l2.292969 7.769531zm0 0" fill="#fff"/><path d="m162.410156 42.855469-.871094-4.695313-.863281 4.695313h-1.941406l-1.792969-7.769531h2.015625l.859375 4.949218 1.011719-4.949218h1.441406l1 4.949218.863281-4.949218h2.011719l-1.792969 7.769531zm0 0" fill="#fff"/><path d="m169.179688 42.855469v-7.769531h4.675781v1.617187h-2.792969v1.398437h2.710938v1.621094h-2.710938v3.132813zm0 0" fill="#fff"/><path d="m174.820312 42.855469v-7.769531h1.882813v7.769531zm0 0" fill="#fff"/><path d="m180.808594 36.703125h-.988282v1.855469h.988282c.503906 0 .863281-.363282.863281-.921875 0-.582031-.359375-.933594-.863281-.933594zm.734375 6.152344-1.023438-2.679688h-.699219v2.679688h-1.882812v-7.769531h3.164062c1.511719 0 2.476563 1.09375 2.476563 2.527343 0 1.316407-.675781 1.980469-1.253906 2.238281l1.3125 3.003907zm0 0" fill="#fff"/><path d="m190.394531 42.855469v-4.972657l-1.582031 4.972657h-.800781l-1.558594-4.972657v4.972657h-1.851563v-7.769531h2.5l1.316407 4.253906 1.324219-4.253906h2.480468v7.769531zm0 0" fill="#fff"/></svg>