<svg width="176" height="41" viewBox="0 0 176 41" fill="none" xmlns="http://www.w3.org/2000/svg">
<g clip-path="url(#clip0_459_1282)">
<path d="M172.478 28.54H3.1506C1.58666 28.54 0.314087 27.093 0.314087 25.3274V4.10207C0.314087 2.33391 1.58666 0.896973 3.1506 0.896973H172.478C174.042 0.896973 175.314 2.33391 175.314 4.10207V25.3274C175.314 27.093 174.042 28.54 172.478 28.54ZM3.1506 1.31037C1.81328 1.31037 0.727486 2.55555 0.727486 4.10207V25.3274C0.727486 26.8664 1.81328 28.1191 3.1506 28.1191H172.478C173.813 28.1191 174.901 26.8739 174.901 25.3274V4.10207C174.901 2.56302 173.813 1.31037 172.478 1.31037H3.1506Z" fill="white"/>
<path d="M20.9495 5.67334H17.8091C17.7926 5.6739 17.7766 5.67943 17.7633 5.6892C17.75 5.69898 17.7399 5.71254 17.7344 5.72813L15.6574 11.9142L13.588 5.75552V5.72813C13.5825 5.71254 13.5724 5.69898 13.5591 5.6892C13.5457 5.67943 13.5298 5.6739 13.5132 5.67334H10.3629C10.3418 5.67334 10.3216 5.68173 10.3066 5.69668C10.2916 5.71163 10.2833 5.7319 10.2833 5.75303V23.5989C10.2833 23.6201 10.2916 23.6404 10.3066 23.6553C10.3216 23.6702 10.3418 23.6786 10.3629 23.6786H13.4136C13.424 23.6787 13.4342 23.6765 13.4438 23.6725C13.4533 23.6685 13.4619 23.6626 13.4691 23.6551C13.4763 23.6477 13.4819 23.6389 13.4857 23.6293C13.4894 23.6196 13.4912 23.6093 13.4908 23.5989V13.5553L15.5279 19.6143C15.5328 19.6303 15.5427 19.6443 15.5562 19.6542C15.5696 19.6641 15.586 19.6693 15.6026 19.6692H15.7097C15.7267 19.6691 15.7432 19.6638 15.757 19.654C15.7709 19.6442 15.7813 19.6303 15.7869 19.6143L17.8216 13.5553V23.5989C17.8216 23.6201 17.83 23.6404 17.8449 23.6553C17.8599 23.6702 17.8801 23.6786 17.9013 23.6786H20.9495C20.9706 23.6786 20.9909 23.6702 21.0058 23.6553C21.0207 23.6404 21.0292 23.6201 21.0292 23.5989V5.75303C21.0292 5.7319 21.0207 5.71163 21.0058 5.69668C20.9909 5.68173 20.9706 5.67334 20.9495 5.67334Z" fill="white"/>
<path d="M27.7875 5.41943C24.7193 5.41943 22.9487 8.61703 22.9487 14.2204V15.1343C22.9487 20.7252 24.7119 23.9328 27.7875 23.9328C30.8631 23.9328 32.6287 20.7252 32.6287 15.1343V14.2204C32.6287 8.61703 30.8631 5.41943 27.7875 5.41943ZM26.3331 15.1318V14.2204C26.3331 10.318 26.7963 8.49254 27.7875 8.49254C28.7787 8.49254 29.2418 10.308 29.2418 14.2204V15.1343C29.2418 19.0342 28.7811 20.8622 27.7875 20.8622C26.7938 20.8622 26.3331 19.0342 26.3331 15.1343V15.1318Z" fill="white"/>
<path d="M43.7707 23.6463C43.7782 23.636 43.7832 23.6242 43.7854 23.6116C43.7876 23.5991 43.7867 23.5862 43.7831 23.574L41.4048 16.3943C42.7546 15.3334 43.4668 13.7048 43.4668 11.6801V11.4534C43.4668 9.51843 42.9314 8.03422 41.878 7.04055C40.9117 6.13406 39.562 5.67334 37.8635 5.67334H34.6261C34.6049 5.67334 34.5846 5.68173 34.5697 5.69668C34.5548 5.71163 34.5463 5.7319 34.5463 5.75303V23.5989C34.5463 23.6201 34.5548 23.6404 34.5697 23.6553C34.5846 23.6702 34.6049 23.6786 34.6261 23.6786H37.8037C37.8249 23.6786 37.8452 23.6702 37.8601 23.6553C37.875 23.6404 37.8834 23.6201 37.8834 23.5989V17.4851H38.2595L40.2369 23.5965V23.6238C40.242 23.6396 40.252 23.6534 40.2654 23.6632C40.2788 23.673 40.2949 23.6784 40.3115 23.6786H43.696C43.7102 23.6805 43.7246 23.6784 43.7378 23.6727C43.7509 23.667 43.7622 23.6579 43.7707 23.6463ZM37.8834 8.80621C39.415 8.82117 40.1248 9.68032 40.1248 11.5033V11.7075C40.1248 13.5055 39.3602 14.4469 37.9109 14.4469H37.8785L37.8834 8.80621Z" fill="white"/>
<path d="M65.5889 23.6492C65.5961 23.6403 65.6015 23.6299 65.6044 23.6187C65.6075 23.6076 65.6081 23.5959 65.6063 23.5845L62.2194 5.72115V5.68877C62.216 5.67074 62.2064 5.65445 62.1923 5.64264C62.1782 5.63085 62.1605 5.62427 62.1422 5.62402H58.7703C58.7519 5.62427 58.7342 5.63085 58.7201 5.64264C58.706 5.65445 58.6965 5.67074 58.693 5.68877L55.3012 23.5845C55.2994 23.5958 55.3001 23.6075 55.3031 23.6186C55.3061 23.6297 55.3114 23.64 55.3187 23.649C55.326 23.6579 55.335 23.6652 55.3453 23.6704C55.3556 23.6756 55.3669 23.6785 55.3784 23.6792H58.459C58.4777 23.6787 58.4957 23.6718 58.5098 23.6595C58.5239 23.6472 58.5332 23.6304 58.5362 23.6119L59.084 20.1503H61.6964L62.2692 23.6119C62.2722 23.6308 62.2819 23.648 62.2965 23.6603C62.3112 23.6727 62.3298 23.6794 62.3489 23.6792H65.5266C65.5386 23.6795 65.5505 23.677 65.5614 23.6718C65.5722 23.6666 65.5817 23.6588 65.5889 23.6492ZM60.4015 12.1239L61.2008 17.1195H59.5846L60.4015 12.1239Z" fill="white"/>
<path d="M76.1282 5.67334H73.0325C73.0112 5.67334 72.9913 5.68173 72.9762 5.69668C72.9611 5.71163 72.9528 5.7319 72.9528 5.75303V14.0708L70.0444 5.72564C70.0382 5.71032 70.0286 5.6971 70.0149 5.68774C70.0019 5.67839 69.9861 5.67337 69.9696 5.67334H67.0133C66.9922 5.67334 66.972 5.68173 66.957 5.69668C66.9421 5.71163 66.9337 5.7319 66.9337 5.75303V23.5989C66.9337 23.6201 66.9421 23.6404 66.957 23.6553C66.972 23.6702 66.9922 23.6786 67.0133 23.6786H70.1137C70.135 23.6786 70.1556 23.6702 70.17 23.6553C70.1851 23.6404 70.1933 23.6201 70.1933 23.5989V14.8428L73.2445 23.6189C73.25 23.6342 73.2603 23.6474 73.2733 23.6568C73.2871 23.6661 73.3028 23.6711 73.3186 23.6712H76.1282C76.1495 23.6712 76.1694 23.6628 76.1845 23.6479C76.1996 23.6329 76.2078 23.6126 76.2078 23.5914V5.75303C76.2078 5.7319 76.1996 5.71163 76.1845 5.69668C76.1694 5.68173 76.1495 5.67334 76.1282 5.67334Z" fill="white"/>
<path d="M91.0876 24.0125L93.3915 22.6005C93.4004 22.5953 93.4079 22.5884 93.4141 22.5803C93.4203 22.572 93.4251 22.5627 93.4278 22.5527C93.4299 22.5427 93.4306 22.5323 93.4292 22.5222C93.4278 22.512 93.4244 22.5022 93.4189 22.4934L91.9592 19.998C92.5631 18.5481 92.9426 17.0148 93.0854 15.4506V15.4133C93.0868 15.3934 93.0813 15.3736 93.0689 15.3575C93.0572 15.3415 93.0401 15.3303 93.0202 15.3261L90.5551 14.8803C90.5338 14.8779 90.5125 14.8832 90.4954 14.8953C90.4865 14.9014 90.4789 14.9092 90.4734 14.9182C90.4679 14.9272 90.4645 14.9372 90.4624 14.9476L90.4027 15.371C90.3032 16.0708 90.2284 16.6161 90.1536 17.0395L88.7543 14.3748C90.47 12.8806 91.2448 11.4063 91.2448 9.57592V9.3966C91.2448 7.0183 89.7508 5.41202 87.5465 5.41202C87.0304 5.40445 86.5184 5.50565 86.0435 5.70903C85.5693 5.91241 85.1424 6.21341 84.7924 6.59244C84.0986 7.36997 83.7239 8.37995 83.7411 9.42151V9.61326C83.7411 10.9606 84.3237 12.1932 85.2028 13.6252C83.3499 15.2539 82.5209 16.8626 82.5209 18.8774V19.0293C82.5209 21.8309 84.4061 23.9453 86.9062 23.9453C87.5238 23.9731 88.1387 23.8604 88.7063 23.6158C89.2738 23.3712 89.7775 23.0011 90.1811 22.5332L90.9833 23.9976C90.9881 24.0069 90.9957 24.0151 91.0039 24.0215C91.0128 24.0279 91.0224 24.0325 91.0327 24.0349H91.0526C91.0664 24.0309 91.0787 24.0231 91.0876 24.0125ZM87.2802 21.0042C86.3359 21.0042 85.7258 20.1549 85.7258 18.8375V18.6358C85.7573 17.7145 86.071 16.8251 86.6248 16.0882L88.7371 20.267C88.5683 20.4947 88.3487 20.6798 88.0955 20.8078C87.8429 20.9358 87.5636 21.003 87.2802 21.0042ZM87.4765 8.14641C87.9973 8.14641 88.346 8.66942 88.346 9.44889V9.65059C88.3638 10.5474 88.0269 11.415 87.4071 12.0637C86.8389 10.9555 86.6076 10.2383 86.6076 9.60077V9.35179C86.6152 8.62955 86.9638 8.14641 87.4765 8.14641Z" fill="white"/>
<path d="M110.086 5.67334H106.946C106.93 5.6739 106.914 5.67943 106.901 5.6892C106.887 5.69898 106.877 5.71254 106.872 5.72813L104.795 11.9142L102.726 5.75552V5.72813C102.72 5.71235 102.71 5.69859 102.697 5.68876C102.683 5.67894 102.667 5.67355 102.651 5.67334H99.5C99.4788 5.67334 99.4589 5.68173 99.4438 5.69668C99.4287 5.71163 99.4204 5.7319 99.4204 5.75303V23.5989C99.4204 23.6201 99.4287 23.6404 99.4438 23.6553C99.4589 23.6702 99.4788 23.6786 99.5 23.6786H102.551C102.562 23.6787 102.572 23.6765 102.581 23.6725C102.59 23.6685 102.599 23.6626 102.606 23.6551C102.614 23.6477 102.619 23.6389 102.623 23.6293C102.627 23.6196 102.629 23.6093 102.628 23.5989V13.5553L104.66 19.587V19.6143C104.665 19.6303 104.675 19.6443 104.688 19.6542C104.702 19.6641 104.718 19.6693 104.735 19.6692H104.842C104.859 19.6691 104.876 19.6638 104.889 19.654C104.903 19.6442 104.913 19.6303 104.92 19.6143L106.954 13.5553V23.5989C106.954 23.6201 106.962 23.6404 106.977 23.6553C106.992 23.6702 107.013 23.6786 107.033 23.6786H110.082C110.103 23.6786 110.123 23.6702 110.138 23.6553C110.153 23.6404 110.161 23.6201 110.161 23.5989V5.75303C110.161 5.73273 110.154 5.71318 110.14 5.69838C110.126 5.68357 110.107 5.67461 110.086 5.67334Z" fill="white"/>
<path d="M116.925 5.41943C113.849 5.41943 112.086 8.62699 112.086 14.2204V15.1343C112.086 20.7252 113.849 23.9328 116.925 23.9328C120.001 23.9328 121.766 20.7252 121.766 15.1343V14.2204C121.766 8.61703 120.001 5.41943 116.925 5.41943ZM115.471 15.1318V14.2204C115.471 10.318 115.934 8.49254 116.925 8.49254C117.916 8.49254 118.379 10.308 118.379 14.2204V15.1343C118.379 19.0342 117.919 20.8622 116.925 20.8622C115.932 20.8622 115.471 19.0342 115.471 15.1343V15.1318Z" fill="white"/>
<path d="M132.909 23.6463C132.916 23.636 132.921 23.6242 132.923 23.6116C132.925 23.5991 132.924 23.5862 132.921 23.574L130.542 16.3943C131.892 15.3334 132.605 13.7048 132.605 11.6801V11.4534C132.605 9.51843 132.069 8.03422 131.016 7.04055C130.05 6.13406 128.7 5.67334 127.001 5.67334H123.764C123.743 5.67334 123.722 5.68173 123.708 5.69668C123.693 5.71163 123.684 5.7319 123.684 5.75303V23.5989C123.684 23.6201 123.693 23.6404 123.708 23.6553C123.722 23.6702 123.743 23.6786 123.764 23.6786H126.941C126.963 23.6786 126.983 23.6702 126.998 23.6553C127.013 23.6404 127.021 23.6201 127.021 23.5989V17.4851H127.397L129.374 23.5965V23.6238C129.379 23.6398 129.389 23.6538 129.403 23.6637C129.416 23.6736 129.433 23.6788 129.449 23.6786H132.834C132.848 23.6805 132.863 23.6784 132.876 23.6727C132.889 23.667 132.9 23.6579 132.909 23.6463ZM127.021 8.80621C128.553 8.82117 129.262 9.68032 129.262 11.5033V11.7075C129.262 13.5055 128.498 14.4469 127.048 14.4469H127.016L127.021 8.80621Z" fill="white"/>
<path d="M154.716 23.6492C154.724 23.6403 154.729 23.6299 154.732 23.6187C154.736 23.6076 154.736 23.5959 154.734 23.5845L151.347 5.72115V5.68877C151.344 5.67074 151.334 5.65445 151.32 5.64264C151.306 5.63085 151.288 5.62427 151.27 5.62402H147.908C147.889 5.62427 147.872 5.63085 147.858 5.64264C147.844 5.65445 147.834 5.67074 147.831 5.68877L144.439 23.5845C144.437 23.5959 144.438 23.6076 144.441 23.6187C144.443 23.6299 144.449 23.6403 144.456 23.6492C144.463 23.6585 144.472 23.666 144.483 23.6713C144.493 23.6764 144.505 23.6792 144.516 23.6792H147.597C147.615 23.6787 147.633 23.6718 147.648 23.6595C147.661 23.6472 147.671 23.6304 147.674 23.6119L148.221 20.1503H150.834L151.407 23.6119C151.41 23.6308 151.419 23.648 151.434 23.6603C151.449 23.6727 151.467 23.6794 151.487 23.6792H154.664C154.674 23.6781 154.685 23.6748 154.694 23.6697C154.703 23.6645 154.71 23.6576 154.716 23.6492ZM149.539 12.1239L150.339 17.1195H148.718L149.539 12.1239Z" fill="white"/>
<path d="M165.266 5.67334H162.165C162.144 5.67334 162.123 5.68173 162.109 5.69668C162.094 5.71163 162.085 5.7319 162.085 5.75303V14.0708L159.199 5.75303V5.72564C159.194 5.71032 159.183 5.6971 159.169 5.68774C159.156 5.67839 159.141 5.67337 159.124 5.67334H156.151C156.129 5.67334 156.109 5.68173 156.094 5.69668C156.079 5.71163 156.071 5.7319 156.071 5.75303V23.5989C156.071 23.6201 156.079 23.6404 156.094 23.6553C156.109 23.6702 156.129 23.6786 156.151 23.6786H159.251C159.272 23.6786 159.292 23.6702 159.307 23.6553C159.323 23.6404 159.331 23.6201 159.331 23.5989V14.8428L162.372 23.5914V23.6189C162.377 23.6342 162.387 23.6474 162.4 23.6568C162.414 23.6661 162.43 23.6711 162.446 23.6712H165.255C165.277 23.6712 165.297 23.6628 165.312 23.6479C165.327 23.6329 165.335 23.6126 165.335 23.5914V5.75303C165.335 5.73351 165.328 5.71462 165.315 5.69993C165.303 5.68524 165.285 5.67578 165.266 5.67334Z" fill="white"/>
<path d="M143.199 13.3487H138.778C138.768 13.3487 138.758 13.3508 138.748 13.3548C138.738 13.3589 138.73 13.3648 138.723 13.3722C138.715 13.3796 138.71 13.3884 138.706 13.3981C138.702 13.4077 138.701 13.418 138.701 13.4284V16.2425C138.698 16.254 138.698 16.2659 138.701 16.2774C138.703 16.2889 138.709 16.2996 138.716 16.3088C138.724 16.3179 138.733 16.3252 138.744 16.3301C138.755 16.335 138.767 16.3374 138.778 16.3372H140.25V20.8198C140.182 20.8319 140.112 20.8369 140.043 20.8347C138.34 20.8347 137.438 18.8424 137.438 15.1069V14.2129C137.438 12.3326 137.702 10.8932 138.223 9.9369C138.721 9.04035 139.408 8.58713 140.302 8.58713C141.119 8.58713 141.796 8.89095 142.558 9.34917C142.571 9.35645 142.584 9.36029 142.598 9.36029C142.612 9.36029 142.626 9.35645 142.638 9.34917C142.65 9.34272 142.66 9.33305 142.667 9.32117C142.675 9.3093 142.678 9.29571 142.678 9.28192V6.00214C142.678 5.98746 142.674 5.9731 142.666 5.96076C142.658 5.9484 142.647 5.93857 142.633 5.93241C141.871 5.57562 141.039 5.39598 140.197 5.40695C139.332 5.39286 138.477 5.59309 137.708 5.98981C136.939 6.38653 136.279 6.96741 135.789 7.68065C134.676 9.22962 134.089 11.5332 134.089 14.3424V14.9599C134.089 17.9484 134.667 20.247 135.802 21.796C136.266 22.4555 136.883 22.9914 137.602 23.357C138.32 23.7225 139.118 23.9065 139.924 23.8929C141.169 23.8929 142.118 23.594 143.234 23.1134C143.248 23.1075 143.26 23.0976 143.269 23.0848C143.278 23.0719 143.283 23.0568 143.283 23.0412V13.4383C143.284 13.4267 143.284 13.4147 143.28 13.4035C143.276 13.3923 143.27 13.3821 143.262 13.3735C143.254 13.3649 143.244 13.3583 143.233 13.3539C143.222 13.3497 143.21 13.3479 143.199 13.3487Z" fill="white"/>
<path d="M54.0561 13.3486H49.6431C49.6221 13.3486 49.6017 13.3571 49.5868 13.372C49.5719 13.3869 49.5635 13.4072 49.5635 13.4283V16.2424C49.5635 16.2528 49.5655 16.263 49.5696 16.2726C49.5736 16.2821 49.5795 16.2908 49.5869 16.298C49.5944 16.3051 49.6032 16.3108 49.6129 16.3145C49.6225 16.3182 49.6328 16.32 49.6431 16.3196H51.1175V20.8023C51.0501 20.8144 50.9816 20.8194 50.9132 20.8172C49.2073 20.8172 48.3083 18.825 48.3083 15.0894V14.2128C48.3083 12.3326 48.5698 10.8931 49.0903 9.93688C49.5884 9.04033 50.2782 8.58705 51.1697 8.58705C51.9891 8.58705 52.664 8.89093 53.4285 9.34916C53.4406 9.35636 53.4543 9.36021 53.4684 9.36021C53.4824 9.36021 53.4961 9.35636 53.5082 9.34916C53.5204 9.34271 53.5306 9.33303 53.5376 9.32116C53.5447 9.30929 53.5482 9.2957 53.548 9.2819V6.00209C53.548 5.9874 53.5437 5.97304 53.5358 5.9607C53.5279 5.94834 53.5165 5.93851 53.5032 5.93235C52.7415 5.57557 51.9088 5.39592 51.0676 5.40689C50.1982 5.38887 49.3379 5.58722 48.5642 5.98411C47.7904 6.38099 47.1274 6.96396 46.6348 7.68059C45.5241 9.22961 44.9364 11.5332 44.9364 14.3423V14.9599C44.9364 17.9483 45.5117 20.2469 46.6473 21.7959C47.1113 22.4555 47.7298 22.9914 48.4487 23.3569C49.1675 23.7224 49.9649 23.9064 50.7713 23.8928C52.0165 23.8928 52.9653 23.594 54.081 23.1134C54.0952 23.1074 54.1073 23.0974 54.1156 23.0845C54.1241 23.0716 54.1285 23.0565 54.1283 23.0411V13.4383C54.1297 13.4276 54.1289 13.4168 54.1259 13.4064C54.1231 13.3961 54.118 13.3864 54.1113 13.3781C54.1046 13.3697 54.0962 13.3628 54.0867 13.3577C54.0772 13.3527 54.0668 13.3496 54.0561 13.3486Z" fill="white"/>
<path d="M20.8546 35.1391H19.5496C19.5038 35.1392 19.4598 35.1211 19.4272 35.089C19.3946 35.0568 19.376 35.0131 19.3753 34.9674V33.9712C19.376 33.9254 19.3946 33.8817 19.4272 33.8495C19.4598 33.8174 19.5038 33.7993 19.5496 33.7993H23.6014C23.6472 33.7993 23.6912 33.8174 23.7238 33.8495C23.7565 33.8817 23.7751 33.9254 23.7758 33.9712V34.9674C23.7751 35.0131 23.7565 35.0568 23.7238 35.089C23.6912 35.1211 23.6472 35.1392 23.6014 35.1391H22.2965V40.0128C22.2953 40.0586 22.2764 40.1023 22.2441 40.1347C22.2116 40.1671 22.168 40.1859 22.1222 40.1871H21.0289C20.983 40.1859 20.9394 40.1671 20.907 40.1347C20.8746 40.1023 20.8558 40.0586 20.8546 40.0128V35.1391Z" fill="white"/>
<path d="M25.3722 33.9712C25.3741 33.9258 25.3931 33.8828 25.4255 33.8509C25.4579 33.819 25.5011 33.8006 25.5465 33.7993H26.6323C26.6781 33.7993 26.7221 33.8174 26.7547 33.8495C26.7873 33.8817 26.806 33.9254 26.8067 33.9712V36.2723H29.4166V33.9712C29.4166 33.9256 29.4346 33.8819 29.4669 33.8497C29.4991 33.8174 29.5428 33.7993 29.5884 33.7993H30.6742C30.7196 33.8006 30.7628 33.819 30.7952 33.8509C30.8276 33.8828 30.8466 33.9258 30.8485 33.9712V40.0128C30.8472 40.0586 30.8285 40.1023 30.796 40.1347C30.7636 40.1671 30.72 40.1859 30.6742 40.1871H29.5884C29.5656 40.1871 29.543 40.1826 29.522 40.1738C29.501 40.165 29.482 40.1522 29.466 40.1359C29.45 40.1197 29.4374 40.1005 29.4289 40.0793C29.4204 40.0582 29.4162 40.0356 29.4166 40.0128V37.6146H26.8067V40.0128C26.8067 40.059 26.7883 40.1034 26.7556 40.136C26.7229 40.1688 26.6785 40.1871 26.6323 40.1871H25.5465C25.5007 40.1859 25.4571 40.1671 25.4246 40.1347C25.3922 40.1023 25.3734 40.0586 25.3722 40.0128V33.9712Z" fill="white"/>
<path d="M33.1021 33.9712C33.1028 33.9254 33.1214 33.8817 33.154 33.8495C33.1867 33.8174 33.2306 33.7993 33.2765 33.7993H37.0543C37.1001 33.7993 37.1441 33.8174 37.1767 33.8495C37.2094 33.8817 37.228 33.9254 37.2286 33.9712V34.9674C37.228 35.0131 37.2094 35.0568 37.1767 35.089C37.1441 35.1211 37.1001 35.1392 37.0543 35.1391H34.5266V36.2723H36.6085C36.6535 36.2741 36.6962 36.2928 36.728 36.3247C36.7598 36.3565 36.7785 36.3991 36.7804 36.4441V37.4403C36.7804 37.486 36.7623 37.53 36.7302 37.5626C36.698 37.5952 36.6544 37.6139 36.6085 37.6146H34.5266V38.8448H37.0543C37.1005 38.8448 37.1449 38.8632 37.1776 38.8959C37.2102 38.9286 37.2286 38.9729 37.2286 39.0191V40.0153C37.2286 40.0615 37.2102 40.1058 37.1776 40.1386C37.1449 40.1712 37.1005 40.1896 37.0543 40.1896H33.2765C33.2302 40.1896 33.1859 40.1712 33.1532 40.1386C33.1205 40.1058 33.1021 40.0615 33.1021 40.0153V33.9712Z" fill="white"/>
<path d="M42.4661 33.8545C42.4728 33.8149 42.4927 33.7789 42.5226 33.7522C42.5524 33.7255 42.5904 33.7098 42.6305 33.7075H42.7774C42.8085 33.7099 42.8386 33.7194 42.8654 33.7354C42.8922 33.7514 42.9149 33.7734 42.9318 33.7996L45.0511 37.7543H45.0685L47.1853 33.8121C47.2021 33.7858 47.2249 33.7639 47.2517 33.7479C47.2785 33.7319 47.3086 33.7223 47.3397 33.7199H47.4867C47.5266 33.7222 47.5647 33.738 47.5946 33.7647C47.6244 33.7914 47.6443 33.8274 47.651 33.8669L48.682 39.9956C48.6874 40.0207 48.687 40.0466 48.6807 40.0715C48.6744 40.0964 48.6625 40.1194 48.6459 40.1389C48.6293 40.1584 48.6084 40.1739 48.5849 40.184C48.5613 40.1941 48.5358 40.1987 48.5102 40.1973H47.4318C47.3907 40.1956 47.3512 40.1802 47.3197 40.1536C47.2881 40.127 47.2663 40.0908 47.2575 40.0504L46.8491 37.2313H46.8292L45.2976 40.1874C45.2808 40.215 45.2579 40.2386 45.2308 40.2563C45.2036 40.2739 45.1728 40.2853 45.1407 40.2895H44.9764C44.9443 40.2863 44.9135 40.2753 44.8866 40.2575C44.8597 40.2397 44.8375 40.2157 44.8219 40.1874L43.2804 37.2313H43.2605L42.8595 40.0504C42.8525 40.0916 42.8311 40.1289 42.7992 40.1558C42.7674 40.1827 42.7269 40.1974 42.6852 40.1973H41.6094C41.5838 40.1986 41.5582 40.194 41.5345 40.1839C41.5109 40.1737 41.4899 40.1584 41.4731 40.1389C41.4563 40.1195 41.4442 40.0965 41.4376 40.0717C41.431 40.0468 41.4302 40.0208 41.4351 39.9956L42.4661 33.8545Z" fill="white"/>
<path d="M53.3588 33.7075C54.0083 33.708 54.6432 33.9009 55.1832 34.2619C55.7231 34.6228 56.1441 35.1357 56.3929 35.7357C56.6416 36.3357 56.7071 36.9959 56.581 37.6331C56.4549 38.2702 56.1429 38.8558 55.6843 39.3158C55.2257 39.7757 54.6411 40.0895 54.0043 40.2176C53.3676 40.3456 52.7071 40.2821 52.1064 40.0352C51.5056 39.7882 50.9916 39.3688 50.6289 38.8299C50.2664 38.291 50.0715 37.6568 50.0691 37.0073C50.0665 36.574 50.1496 36.1446 50.3139 35.7437C50.4782 35.3428 50.7203 34.9784 51.0261 34.6717C51.332 34.3648 51.6956 34.1217 52.096 33.9562C52.4964 33.7907 52.9256 33.7062 53.3588 33.7075ZM53.3588 38.8177C53.7207 38.8197 54.075 38.714 54.3767 38.5143C54.6784 38.3144 54.914 38.0294 55.0533 37.6955C55.1927 37.3615 55.2297 36.9937 55.1596 36.6387C55.0895 36.2836 54.9154 35.9575 54.6596 35.7016C54.4036 35.4457 54.0775 35.2716 53.7224 35.2015C53.3674 35.1313 52.9996 35.1683 52.6656 35.3078C52.3316 35.4472 52.0466 35.6827 51.8469 35.9844C51.647 36.2861 51.5414 36.6404 51.5433 37.0023C51.5466 37.4827 51.7389 37.9427 52.0787 38.2824C52.4185 38.6222 52.8783 38.8145 53.3588 38.8177Z" fill="white"/>
<path d="M58.4216 33.9712C58.4216 33.9256 58.4397 33.8819 58.4719 33.8497C58.5042 33.8174 58.5478 33.7993 58.5934 33.7993H61.3328C61.8573 33.7993 62.3607 34.0062 62.7337 34.375C63.1067 34.7437 63.3192 35.2447 63.3251 35.7692C63.313 36.176 63.1774 36.5695 62.9363 36.8973C62.6952 37.2251 62.36 37.4718 61.9753 37.6046L63.2205 39.9231C63.2367 39.9501 63.2454 39.981 63.2454 40.0125C63.2455 40.044 63.2371 40.075 63.2209 40.102C63.2049 40.1291 63.1818 40.1513 63.154 40.1663C63.1263 40.1813 63.0951 40.1885 63.0636 40.1871H61.8508C61.8213 40.1872 61.7923 40.1797 61.7666 40.1653C61.7408 40.1509 61.7192 40.1301 61.7039 40.1049L60.4911 37.6868H59.861V40.0128C59.8598 40.0586 59.841 40.1023 59.8086 40.1347C59.7761 40.1671 59.7325 40.1859 59.6867 40.1871H58.5884C58.5657 40.1871 58.5431 40.1826 58.5221 40.1738C58.5011 40.165 58.482 40.1522 58.466 40.1359C58.45 40.1197 58.4375 40.1005 58.429 40.0793C58.4204 40.0582 58.4163 40.0356 58.4166 40.0128L58.4216 33.9712ZM61.2033 36.5263C61.3905 36.5168 61.5669 36.4357 61.6962 36.3C61.8255 36.1642 61.8977 35.9841 61.8981 35.7966C61.8968 35.613 61.8231 35.4372 61.693 35.3076C61.563 35.178 61.3869 35.105 61.2033 35.1043H59.8535V36.5263H61.2033Z" fill="white"/>
<path d="M68.0518 33.7173C68.8716 33.7355 69.6593 34.0384 70.2804 34.574C70.3003 34.5878 70.3161 34.6058 70.3278 34.6266C70.3394 34.6475 70.3463 34.6706 70.3477 34.6943C70.3497 34.7181 70.3463 34.742 70.3374 34.7643C70.3285 34.7865 70.3154 34.8065 70.2983 34.823L69.5756 35.59C69.5413 35.6201 69.4974 35.6367 69.4514 35.6367C69.4054 35.6367 69.3615 35.6201 69.3265 35.59C69.0005 35.292 68.5703 35.1345 68.1289 35.1517C67.6555 35.1692 67.2072 35.3696 66.8785 35.7107C66.5497 36.0518 66.366 36.5071 66.366 36.9809C66.366 37.4547 66.5497 37.9099 66.8785 38.2511C67.2072 38.5922 67.6555 38.7926 68.1289 38.8101C68.4064 38.8147 68.682 38.7656 68.9408 38.6656V38.1352H68.3655C68.3433 38.1362 68.3211 38.1327 68.3003 38.1249C68.2795 38.1171 68.2605 38.1051 68.2445 38.0897C68.2283 38.0744 68.2156 38.0559 68.2068 38.0355C68.1981 38.015 68.1937 37.993 68.1937 37.9708V37.0668C68.193 37.0441 68.197 37.0214 68.2053 37.0002C68.2137 36.9791 68.2263 36.9599 68.2425 36.9437C68.2586 36.9277 68.2778 36.915 68.2989 36.9066C68.3201 36.8982 68.3427 36.8943 68.3655 36.8949H70.2008C70.2454 36.8969 70.2873 36.9159 70.3175 36.9479C70.3484 36.9799 70.3655 37.0225 70.3655 37.0668V39.5223C70.3593 39.5789 70.3333 39.6314 70.2907 39.6692C69.6079 40.0567 68.8369 40.2633 68.0518 40.2694C67.1985 40.2459 66.3881 39.8904 65.7929 39.2786C65.1977 38.6668 64.8648 37.8469 64.8648 36.9934C64.8648 36.1398 65.1977 35.3199 65.7929 34.7081C66.3881 34.0962 67.1985 33.7408 68.0518 33.7173Z" fill="white"/>
<path d="M71.491 39.9508L74.3473 33.8071C74.3624 33.7785 74.3843 33.7542 74.4111 33.7367C74.4386 33.7192 74.4694 33.7092 74.5017 33.7075H74.5943C74.6266 33.7089 74.6575 33.7188 74.6849 33.7363C74.7117 33.7538 74.7337 33.7783 74.7487 33.8071L77.605 39.9508C77.6229 39.9764 77.6325 40.0066 77.6338 40.0378C77.6345 40.069 77.6263 40.0998 77.6098 40.1262C77.5934 40.1528 77.5693 40.1739 77.5412 40.187C77.5131 40.2 77.4815 40.2045 77.4506 40.1999H76.437C76.2723 40.1999 76.2002 40.145 76.1179 39.9707L75.7891 39.2486H73.2993L72.9706 39.9782C72.9452 40.0446 72.8999 40.1014 72.8409 40.1407C72.7826 40.18 72.7126 40.1998 72.6419 40.1973H71.6454C71.6152 40.2016 71.5837 40.1969 71.5562 40.184C71.5281 40.1709 71.5047 40.1502 71.4883 40.1241C71.4718 40.098 71.4636 40.0678 71.4642 40.0371C71.4642 40.0064 71.4738 39.9764 71.491 39.9508ZM75.2415 38.0034L74.549 36.5092L73.8641 38.0034H75.2415Z" fill="white"/>
<path d="M79.0291 33.8719C79.0312 33.8272 79.0504 33.785 79.0833 33.7543C79.1156 33.7237 79.1588 33.7069 79.2034 33.7075H79.4299L83.0713 37.2114V33.974C83.0713 33.9512 83.0754 33.9287 83.0843 33.9077C83.0932 33.8867 83.1063 33.8676 83.1221 33.8516C83.1385 33.8356 83.1578 33.823 83.179 33.8145C83.2003 33.806 83.223 33.8018 83.2456 33.8022H84.3409C84.3862 33.804 84.4287 33.8227 84.461 33.8545C84.4926 33.8864 84.5111 33.929 84.5132 33.974V40.1178C84.5111 40.162 84.4919 40.2038 84.4603 40.2344C84.4281 40.265 84.3855 40.2821 84.3409 40.2821H84.194C84.1515 40.2764 84.1103 40.2602 84.0746 40.2348L80.4813 36.6088V40.0131C80.4813 40.0594 80.4628 40.1037 80.4298 40.1364C80.3976 40.1691 80.353 40.1875 80.307 40.1875H79.2213C79.1753 40.1856 79.1328 40.1665 79.1005 40.1342C79.0689 40.1018 79.0504 40.0585 79.049 40.0131L79.0291 33.8719Z" fill="white"/>
<path d="M92.3079 33.7075C92.7142 33.6957 93.1184 33.7646 93.4979 33.9104C93.8767 34.0562 94.2233 34.2759 94.517 34.5567C94.5342 34.5726 94.5479 34.5919 94.5575 34.6133C94.5664 34.6347 94.5712 34.6579 94.5712 34.6813C94.5712 34.7047 94.5664 34.7278 94.5575 34.7492C94.5479 34.7707 94.5342 34.7899 94.517 34.8058L93.8047 35.5529C93.7896 35.5682 93.7717 35.5804 93.7525 35.5888C93.7326 35.5972 93.7113 35.6014 93.69 35.6014C93.6688 35.6014 93.6475 35.5972 93.6276 35.5888C93.6084 35.5804 93.5905 35.5682 93.5754 35.5529C93.2357 35.253 92.7986 35.0874 92.3456 35.0872C91.8501 35.0872 91.3746 35.284 91.0246 35.6342C90.6746 35.9845 90.4776 36.4596 90.4776 36.955C90.4776 37.4503 90.6746 37.9254 91.0246 38.2756C91.3746 38.6259 91.8501 38.8227 92.3456 38.8227C92.7917 38.8236 93.2241 38.6685 93.5679 38.3844C93.6015 38.3527 93.6461 38.3351 93.6928 38.3351C93.7388 38.3351 93.7834 38.3527 93.817 38.3844L94.5294 39.1316C94.5603 39.1655 94.5781 39.2099 94.5781 39.2561C94.5781 39.3022 94.5603 39.3466 94.5294 39.3805C93.9357 39.9578 93.1383 40.2766 92.3106 40.2671C91.8714 40.2792 91.4343 40.2032 91.0252 40.0435C90.6155 39.8838 90.2429 39.6437 89.9279 39.3373C89.6129 39.031 89.3624 38.6647 89.1915 38.26C89.0206 37.8552 88.9328 37.4204 88.9328 36.9811C88.9328 36.5418 89.0206 36.1069 89.1915 35.7022C89.3624 35.2976 89.6129 34.9312 89.9279 34.6249C90.2429 34.3186 90.6155 34.0785 91.0252 33.9188C91.4343 33.7591 91.8714 33.683 92.3106 33.6951L92.3079 33.7075Z" fill="white"/>
<path d="M99.089 33.7075C99.7396 33.7051 100.376 33.8955 100.917 34.2546C101.459 34.6138 101.883 35.1256 102.134 35.7253C102.385 36.3251 102.452 36.9857 102.328 37.6239C102.203 38.2621 101.893 38.849 101.435 39.3104C100.977 39.7719 100.392 40.0872 99.7553 40.2164C99.1178 40.3457 98.4569 40.2831 97.8551 40.0366C97.2532 39.7901 96.7385 39.3707 96.3755 38.8315C96.0117 38.2923 95.8168 37.6574 95.8141 37.0073C95.8113 36.5753 95.8944 36.1471 96.0577 35.7472C96.221 35.3473 96.4619 34.9836 96.7659 34.677C97.0707 34.3703 97.4323 34.1269 97.831 33.9605C98.2298 33.7942 98.6573 33.7082 99.089 33.7075ZM99.089 38.8177C99.4513 38.8197 99.8055 38.7141 100.107 38.5143C100.409 38.3144 100.644 38.0295 100.783 37.6955C100.923 37.3615 100.96 36.9937 100.89 36.6387C100.82 36.2836 100.645 35.9575 100.39 35.7016C100.134 35.4457 99.8075 35.2716 99.4527 35.2015C99.0979 35.1314 98.7301 35.1684 98.3958 35.3078C98.0616 35.4472 97.7768 35.6827 97.5771 35.9844C97.3774 36.2861 97.2717 36.6404 97.2738 37.0023C97.2765 37.4829 97.4687 37.9432 97.8084 38.2831C98.1481 38.6231 98.6086 38.8151 99.089 38.8177Z" fill="white"/>
<path d="M104.162 33.8719C104.164 33.8272 104.183 33.785 104.216 33.7543C104.248 33.7237 104.292 33.7069 104.336 33.7075H104.565L108.206 37.2115V33.974C108.206 33.9285 108.225 33.8847 108.257 33.8525C108.289 33.8203 108.332 33.8022 108.378 33.8022H109.474C109.52 33.8034 109.563 33.8218 109.595 33.8537C109.627 33.8856 109.647 33.9286 109.649 33.974V40.1178C109.647 40.1624 109.627 40.2046 109.594 40.2353C109.562 40.266 109.519 40.2828 109.474 40.2821H109.327C109.285 40.2766 109.244 40.2604 109.21 40.2348L105.606 36.6088V40.0131C105.606 40.0359 105.602 40.0585 105.594 40.0797C105.586 40.1008 105.573 40.12 105.557 40.1362C105.541 40.1525 105.522 40.1653 105.501 40.1742C105.48 40.183 105.458 40.1875 105.435 40.1875H104.348C104.303 40.1862 104.259 40.1674 104.227 40.135C104.195 40.1026 104.176 40.0589 104.174 40.0131L104.162 33.8719Z" fill="white"/>
<path d="M111.895 33.8719C111.897 33.8272 111.916 33.785 111.948 33.7543C111.981 33.7237 112.025 33.7069 112.069 33.7075H112.298L115.939 37.2114V33.974C115.94 33.9282 115.958 33.8845 115.991 33.8523C116.023 33.8202 116.067 33.8022 116.113 33.8022H117.209C117.254 33.804 117.297 33.8227 117.329 33.8545C117.36 33.8864 117.379 33.929 117.381 33.974V40.1178C117.379 40.162 117.36 40.2038 117.328 40.2344C117.296 40.265 117.253 40.2821 117.209 40.2821H117.063C117.02 40.2766 116.979 40.2604 116.945 40.2348L113.346 36.6088V40.0131C113.347 40.0359 113.343 40.0585 113.334 40.0797C113.326 40.1008 113.313 40.12 113.297 40.1362C113.281 40.1525 113.262 40.1653 113.241 40.1742C113.22 40.183 113.197 40.1875 113.175 40.1875H112.089C112.043 40.1862 112 40.1674 111.967 40.135C111.935 40.1026 111.916 40.0589 111.915 40.0131L111.895 33.8719Z" fill="white"/>
<path d="M119.645 33.9712C119.645 33.9256 119.663 33.8819 119.695 33.8497C119.727 33.8174 119.771 33.7993 119.817 33.7993H123.587C123.633 33.7993 123.676 33.8174 123.708 33.8497C123.741 33.8819 123.759 33.9256 123.759 33.9712V34.9674C123.759 35.0129 123.741 35.0566 123.708 35.0888C123.676 35.1211 123.633 35.1391 123.587 35.1391H121.067V36.2723H123.149C123.194 36.2735 123.238 36.2919 123.27 36.3238C123.302 36.3557 123.321 36.3987 123.323 36.4441V37.4403C123.323 37.4865 123.305 37.5308 123.272 37.5635C123.24 37.5962 123.195 37.6146 123.149 37.6146H121.067V38.8448H123.587C123.61 38.8448 123.632 38.8493 123.653 38.8581C123.675 38.8669 123.693 38.8798 123.71 38.896C123.726 38.9123 123.738 38.9315 123.747 38.9526C123.755 38.9738 123.759 38.9963 123.759 39.0191V40.0153C123.759 40.038 123.755 40.0607 123.747 40.0818C123.738 40.103 123.726 40.1222 123.71 40.1384C123.693 40.1546 123.675 40.1675 123.653 40.1763C123.632 40.1851 123.61 40.1896 123.587 40.1896H119.817C119.794 40.1896 119.771 40.1851 119.751 40.1763C119.729 40.1675 119.71 40.1546 119.694 40.1384C119.679 40.1222 119.666 40.103 119.657 40.0818C119.649 40.0607 119.644 40.038 119.645 40.0153V33.9712Z" fill="white"/>
<path d="M128.505 33.7075C128.911 33.6957 129.316 33.7646 129.695 33.9104C130.074 34.0562 130.421 34.2759 130.714 34.5567C130.732 34.5726 130.745 34.5919 130.754 34.6133C130.764 34.6347 130.769 34.6579 130.769 34.6813C130.769 34.7047 130.764 34.7278 130.754 34.7492C130.745 34.7707 130.732 34.7899 130.714 34.8058L130.002 35.5529C129.987 35.5682 129.969 35.5804 129.949 35.5888C129.93 35.5972 129.909 35.6014 129.888 35.6014C129.866 35.6014 129.845 35.5972 129.825 35.5888C129.805 35.5804 129.787 35.5682 129.773 35.5529C129.433 35.253 128.995 35.0874 128.542 35.0872C128.047 35.0872 127.572 35.284 127.222 35.6342C126.871 35.9845 126.675 36.4596 126.675 36.955C126.675 37.4503 126.871 37.9254 127.222 38.2756C127.572 38.6259 128.047 38.8227 128.542 38.8227C128.988 38.8232 129.421 38.6681 129.765 38.3844C129.799 38.3527 129.844 38.3351 129.89 38.3351C129.936 38.3351 129.981 38.3527 130.014 38.3844L130.727 39.1316C130.758 39.1655 130.775 39.2099 130.775 39.2561C130.775 39.3022 130.758 39.3466 130.727 39.3805C130.133 39.9578 129.336 40.2766 128.507 40.2671C128.068 40.2792 127.632 40.2032 127.222 40.0435C126.813 39.8838 126.44 39.6437 126.125 39.3373C125.81 39.031 125.56 38.6647 125.389 38.26C125.218 37.8552 125.13 37.4204 125.13 36.9811C125.13 36.5418 125.218 36.1069 125.389 35.7022C125.56 35.2976 125.81 34.9312 126.125 34.6249C126.44 34.3186 126.813 34.0785 127.222 33.9188C127.632 33.7591 128.068 33.683 128.507 33.6951L128.505 33.7075Z" fill="white"/>
<path d="M133.324 35.1391H132.019C131.974 35.1391 131.93 35.1211 131.898 35.0888C131.865 35.0566 131.847 35.0129 131.847 34.9674V33.9712C131.847 33.9256 131.865 33.8819 131.898 33.8497C131.93 33.8174 131.974 33.7993 132.019 33.7993H136.074C136.096 33.7993 136.119 33.8038 136.139 33.8124C136.16 33.8211 136.179 33.8337 136.195 33.8497C136.211 33.8656 136.224 33.8846 136.233 33.9054C136.241 33.9263 136.246 33.9486 136.246 33.9712V34.9674C136.246 34.9899 136.241 35.0122 136.233 35.0331C136.224 35.054 136.211 35.0729 136.195 35.0888C136.179 35.1048 136.16 35.1174 136.139 35.1261C136.119 35.1347 136.096 35.1391 136.074 35.1391H134.766V40.0128C134.765 40.0582 134.746 40.1015 134.715 40.1338C134.682 40.1662 134.64 40.1852 134.595 40.1871H133.499C133.453 40.1859 133.409 40.1671 133.377 40.1347C133.344 40.1023 133.326 40.0586 133.324 40.0128V35.1391Z" fill="white"/>
<path d="M137.844 33.9712C137.846 33.9262 137.865 33.8835 137.896 33.8517C137.929 33.8199 137.971 33.8012 138.016 33.7993H139.112C139.157 33.8006 139.2 33.819 139.232 33.8509C139.265 33.8828 139.284 33.9258 139.286 33.9712V40.0128C139.285 40.0586 139.266 40.1023 139.234 40.1347C139.201 40.1671 139.158 40.1859 139.112 40.1871H138.016C137.97 40.1852 137.927 40.1662 137.896 40.1338C137.864 40.1015 137.846 40.0582 137.844 40.0128V33.9712Z" fill="white"/>
<path d="M144.351 33.7075C145.001 33.7055 145.637 33.8964 146.179 34.2559C146.721 34.6153 147.144 35.1273 147.394 35.727C147.645 36.3268 147.712 36.9874 147.588 37.6254C147.463 38.2634 147.152 38.8501 146.694 39.3113C146.236 39.7726 145.651 40.0876 145.014 40.2166C144.377 40.3457 143.716 40.2829 143.114 40.0364C142.513 39.7897 141.998 39.3703 141.635 38.8312C141.271 38.2921 141.077 37.6573 141.074 37.0073C141.072 36.5751 141.154 36.1466 141.318 35.7466C141.481 35.3465 141.722 34.9827 142.027 34.6761C142.331 34.3694 142.693 34.126 143.093 33.9598C143.492 33.7936 143.919 33.7079 144.351 33.7075ZM144.351 38.8177C144.713 38.8193 145.067 38.7132 145.368 38.513C145.67 38.3129 145.905 38.0278 146.044 37.6938C146.183 37.3597 146.22 36.992 146.149 36.6371C146.079 36.2822 145.904 35.9563 145.648 35.7007C145.392 35.445 145.067 35.2712 144.712 35.2013C144.357 35.1314 143.989 35.1685 143.655 35.308C143.321 35.4474 143.037 35.683 142.837 35.9847C142.637 36.2863 142.531 36.6405 142.533 37.0023C142.536 37.4834 142.728 37.944 143.069 38.284C143.409 38.6239 143.87 38.8158 144.351 38.8177Z" fill="white"/>
<path d="M149.417 33.8719C149.419 33.8276 149.438 33.7858 149.47 33.7551C149.502 33.7245 149.545 33.7075 149.589 33.7075H149.818L153.471 37.2114V33.974C153.471 33.9284 153.489 33.8847 153.521 33.8525C153.554 33.8202 153.598 33.8022 153.643 33.8022H154.739C154.784 33.8033 154.827 33.8218 154.86 33.8537C154.892 33.8856 154.911 33.9286 154.913 33.974V40.1177C154.911 40.1624 154.892 40.2045 154.86 40.2352C154.827 40.266 154.784 40.2827 154.739 40.282H154.592C154.548 40.2809 154.505 40.268 154.467 40.2447L150.866 36.6087V40.0131C150.866 40.0593 150.848 40.1037 150.816 40.1363C150.783 40.1691 150.738 40.1874 150.692 40.1874H149.606C149.56 40.1862 149.517 40.1674 149.484 40.135C149.452 40.1026 149.433 40.0589 149.432 40.0131L149.417 33.8719Z" fill="white"/>
</g>
<defs>
<clipPath id="clip0_459_1282">
<rect width="175" height="39.8039" fill="white" transform="translate(0.314087 0.896973)"/>
</clipPath>
</defs>
</svg>
